<svg width="140" height="140" viewBox="0 0 140 140" fill="none" xmlns="http://www.w3.org/2000/svg">
<rect width="140" height="140" rx="12" fill="#007AC2"/>
<path d="M34.2187 107.1H41.2737V109.174H36.5477V111.945H40.8487V114.019H36.5477V116.926H41.3587V119H34.2187V107.1ZM50.4914 116.008C50.4914 116.484 50.497 116.96 50.5084 117.436C50.5197 117.912 50.5707 118.439 50.6614 119.017H49.0804L48.7744 117.912H48.7064C48.4797 118.309 48.151 118.632 47.7204 118.881C47.301 119.119 46.8024 119.238 46.2244 119.238C45.159 119.238 44.3317 118.887 43.7424 118.184C43.153 117.481 42.8584 116.382 42.8584 114.886C42.8584 113.435 43.187 112.308 43.8444 111.503C44.5017 110.698 45.465 110.296 46.7344 110.296C47.0857 110.296 47.3747 110.319 47.6014 110.364C47.828 110.398 48.0547 110.46 48.2814 110.551V107.1H50.4914V116.008ZM46.7344 117.368C47.165 117.368 47.505 117.266 47.7544 117.062C48.0037 116.847 48.1794 116.541 48.2814 116.144V112.54C48.1227 112.415 47.947 112.325 47.7544 112.268C47.5617 112.2 47.3124 112.166 47.0064 112.166C46.383 112.166 45.9127 112.376 45.5954 112.795C45.2894 113.214 45.1364 113.934 45.1364 114.954C45.1364 115.679 45.261 116.263 45.5104 116.705C45.771 117.147 46.179 117.368 46.7344 117.368ZM54.7722 110.5V115.328C54.7722 116.019 54.8516 116.518 55.0102 116.824C55.1802 117.13 55.5032 117.283 55.9792 117.283C56.3986 117.283 56.7442 117.158 57.0162 116.909C57.2996 116.66 57.5092 116.354 57.6452 115.991V110.5H59.8552V116.416C59.8552 116.881 59.8779 117.34 59.9232 117.793C59.9686 118.235 60.0366 118.637 60.1272 119H58.4612L58.0702 117.742H58.0022C57.7416 118.173 57.3789 118.53 56.9142 118.813C56.4496 119.096 55.8999 119.238 55.2652 119.238C54.8346 119.238 54.4492 119.181 54.1092 119.068C53.7692 118.955 53.4859 118.768 53.2592 118.507C53.0326 118.246 52.8569 117.895 52.7322 117.453C52.6189 117.011 52.5622 116.456 52.5622 115.787V110.5H54.7722ZM68.0295 118.473C67.6895 118.722 67.2758 118.909 66.7885 119.034C66.3125 119.17 65.8195 119.238 65.3095 119.238C64.6295 119.238 64.0515 119.13 63.5755 118.915C63.1108 118.7 62.7311 118.399 62.4365 118.014C62.1418 117.617 61.9265 117.141 61.7905 116.586C61.6658 116.031 61.6035 115.419 61.6035 114.75C61.6035 113.311 61.9265 112.206 62.5725 111.435C63.2185 110.653 64.1591 110.262 65.3945 110.262C66.0178 110.262 66.5165 110.313 66.8905 110.415C67.2758 110.517 67.6215 110.647 67.9275 110.806L67.4005 112.608C67.1398 112.483 66.8791 112.387 66.6185 112.319C66.3691 112.251 66.0801 112.217 65.7515 112.217C65.1395 112.217 64.6748 112.421 64.3575 112.829C64.0401 113.226 63.8815 113.866 63.8815 114.75C63.8815 115.113 63.9211 115.447 64.0005 115.753C64.0798 116.059 64.1988 116.325 64.3575 116.552C64.5161 116.779 64.7201 116.96 64.9695 117.096C65.2301 117.221 65.5305 117.283 65.8705 117.283C66.2445 117.283 66.5618 117.238 66.8225 117.147C67.0831 117.045 67.3155 116.926 67.5195 116.79L68.0295 118.473ZM69.5318 110.993C69.9851 110.789 70.5234 110.63 71.1468 110.517C71.7701 110.392 72.4218 110.33 73.1018 110.33C73.6911 110.33 74.1841 110.404 74.5808 110.551C74.9774 110.687 75.2891 110.885 75.5158 111.146C75.7538 111.407 75.9181 111.718 76.0088 112.081C76.1108 112.444 76.1618 112.852 76.1618 113.305C76.1618 113.804 76.1448 114.308 76.1108 114.818C76.0768 115.317 76.0541 115.81 76.0428 116.297C76.0428 116.784 76.0598 117.26 76.0938 117.725C76.1278 118.178 76.2128 118.609 76.3488 119.017H74.5468L74.1898 117.844H74.1048C73.8781 118.195 73.5608 118.501 73.1528 118.762C72.7561 119.011 72.2404 119.136 71.6058 119.136C71.2091 119.136 70.8521 119.079 70.5348 118.966C70.2174 118.841 69.9454 118.671 69.7188 118.456C69.4921 118.229 69.3164 117.969 69.1918 117.674C69.0671 117.368 69.0048 117.028 69.0048 116.654C69.0048 116.133 69.1181 115.696 69.3448 115.345C69.5828 114.982 69.9171 114.693 70.3478 114.478C70.7898 114.251 71.3111 114.098 71.9118 114.019C72.5238 113.928 73.2038 113.9 73.9518 113.934C74.0311 113.299 73.9858 112.846 73.8158 112.574C73.6458 112.291 73.2661 112.149 72.6768 112.149C72.2348 112.149 71.7644 112.194 71.2658 112.285C70.7784 112.376 70.3761 112.495 70.0588 112.642L69.5318 110.993ZM72.3368 117.317C72.7788 117.317 73.1301 117.221 73.3908 117.028C73.6514 116.824 73.8441 116.609 73.9688 116.382V115.277C73.6174 115.243 73.2774 115.237 72.9488 115.26C72.6314 115.283 72.3481 115.334 72.0988 115.413C71.8494 115.492 71.6511 115.606 71.5038 115.753C71.3564 115.9 71.2828 116.087 71.2828 116.314C71.2828 116.631 71.3734 116.881 71.5548 117.062C71.7474 117.232 72.0081 117.317 72.3368 117.317ZM77.3492 110.5H78.5222V108.902L80.7322 108.273V110.5H82.8062V112.37H80.7322V115.634C80.7322 116.223 80.7888 116.648 80.9022 116.909C81.0268 117.158 81.2535 117.283 81.5822 117.283C81.8088 117.283 82.0015 117.26 82.1602 117.215C82.3302 117.17 82.5172 117.102 82.7212 117.011L83.1122 118.711C82.8062 118.858 82.4492 118.983 82.0412 119.085C81.6332 119.187 81.2195 119.238 80.8002 119.238C80.0182 119.238 79.4402 119.04 79.0662 118.643C78.7035 118.235 78.5222 117.572 78.5222 116.654V112.37H77.3492V110.5ZM84.5807 110.5H86.7907V119H84.5807V110.5ZM84.2577 108.103C84.2577 107.774 84.3767 107.497 84.6147 107.27C84.864 107.032 85.204 106.913 85.6347 106.913C86.0654 106.913 86.411 107.032 86.6717 107.27C86.9437 107.497 87.0797 107.774 87.0797 108.103C87.0797 108.432 86.9437 108.709 86.6717 108.936C86.411 109.151 86.0654 109.259 85.6347 109.259C85.204 109.259 84.864 109.151 84.6147 108.936C84.3767 108.709 84.2577 108.432 84.2577 108.103ZM88.7509 114.75C88.7509 113.311 89.1023 112.206 89.8049 111.435C90.5076 110.653 91.4936 110.262 92.7629 110.262C93.4429 110.262 94.0323 110.37 94.5309 110.585C95.0296 110.8 95.4433 111.106 95.7719 111.503C96.1006 111.888 96.3443 112.359 96.5029 112.914C96.6729 113.469 96.7579 114.081 96.7579 114.75C96.7579 116.189 96.4066 117.3 95.7039 118.082C95.0126 118.853 94.0323 119.238 92.7629 119.238C92.0829 119.238 91.4936 119.13 90.9949 118.915C90.4963 118.7 90.0769 118.399 89.7369 118.014C89.4083 117.617 89.1589 117.141 88.9889 116.586C88.8303 116.031 88.7509 115.419 88.7509 114.75ZM91.0289 114.75C91.0289 115.124 91.0629 115.47 91.1309 115.787C91.1989 116.104 91.3009 116.382 91.4369 116.62C91.5729 116.858 91.7486 117.045 91.9639 117.181C92.1906 117.306 92.4569 117.368 92.7629 117.368C93.3409 117.368 93.7716 117.158 94.0549 116.739C94.3383 116.32 94.4799 115.657 94.4799 114.75C94.4799 113.968 94.3496 113.339 94.0889 112.863C93.8283 112.376 93.3863 112.132 92.7629 112.132C92.2189 112.132 91.7939 112.336 91.4879 112.744C91.1819 113.152 91.0289 113.821 91.0289 114.75ZM103.709 119V114.172C103.709 113.481 103.607 112.982 103.403 112.676C103.21 112.37 102.876 112.217 102.4 112.217C101.98 112.217 101.623 112.342 101.329 112.591C101.045 112.829 100.841 113.129 100.717 113.492V119H98.5066V110.5H100.258L100.513 111.622H100.581C100.841 111.259 101.187 110.942 101.618 110.67C102.048 110.398 102.604 110.262 103.284 110.262C103.703 110.262 104.077 110.319 104.406 110.432C104.734 110.545 105.012 110.732 105.239 110.993C105.465 111.254 105.635 111.611 105.749 112.064C105.862 112.506 105.919 113.056 105.919 113.713V119H103.709Z" fill="white"/>
<path d="M29.9574 76.3343V92.6089C29.9574 96.8368 32.2741 100.775 35.9808 102.802L64.9391 118.613C68.4141 120.525 72.5841 120.525 76.0591 118.613L105.017 102.802C108.724 100.775 111.041 96.8368 111.041 92.6089V76.3343L76.0591 95.4468C72.5841 97.3581 68.4141 97.3581 64.9391 95.4468L29.9574 76.3343ZM64.9391 20.3868L16.1154 47.0285C12.1191 49.2293 12.1191 55.021 16.1154 57.2218L64.9391 83.8635C68.4141 85.7747 72.5841 85.7747 76.0591 83.8635L122.624 58.4381V92.6668C122.624 95.8522 125.23 98.4585 128.416 98.4585C131.601 98.4585 134.207 95.8522 134.207 92.6668V55.5422C134.207 53.3993 133.049 51.4881 131.196 50.4456L76.0591 20.3868C72.5841 18.5335 68.4141 18.5335 64.9391 20.3868Z" fill="white" fill-opacity="0.08"/>
<path d="M53.8746 72.3025V78.9763C53.8746 80.71 54.8246 82.325 56.3446 83.1563L68.2195 89.64C69.6445 90.4238 71.3545 90.4238 72.7795 89.64L84.6545 83.1563C86.1745 82.325 87.1245 80.71 87.1245 78.9763V72.3025L72.7795 80.14C71.3545 80.9238 69.6445 80.9238 68.2195 80.14L53.8746 72.3025ZM68.2195 49.36L48.1983 60.285C46.5596 61.1875 46.5596 63.5625 48.1983 64.465L68.2195 75.39C69.6445 76.1738 71.3545 76.1738 72.7795 75.39L91.8745 64.9638V79C91.8745 80.3063 92.9433 81.375 94.2495 81.375C95.5558 81.375 96.6245 80.3063 96.6245 79V63.7763C96.6245 62.8975 96.1495 62.1138 95.3895 61.6863L72.7795 49.36C71.3545 48.6 69.6445 48.6 68.2195 49.36Z" fill="white"/>
</svg>
