<svg width="57" height="57" viewBox="0 0 57 57" fill="none" xmlns="http://www.w3.org/2000/svg">
<path d="M34.4375 27.9062C36.0771 27.9062 37.4062 26.5771 37.4062 24.9375C37.4062 23.2979 36.0771 21.9688 34.4375 21.9688C32.7979 21.9688 31.4688 23.2979 31.4688 24.9375C31.4688 26.5771 32.7979 27.9062 34.4375 27.9062Z" fill="white"/>
<path d="M22.5625 27.9062C24.2021 27.9062 25.5312 26.5771 25.5312 24.9375C25.5312 23.2979 24.2021 21.9688 22.5625 21.9688C20.9229 21.9688 19.5938 23.2979 19.5938 24.9375C19.5938 26.5771 20.9229 27.9062 22.5625 27.9062Z" fill="white"/>
<path d="M54.4825 30.0675C54.5775 29.5688 54.625 29.0462 54.625 28.5C54.625 27.9538 54.5775 27.4312 54.4825 26.9325C53.8887 23.3463 51.2525 20.425 47.8087 19.4038C46.55 16.7438 44.7687 14.4163 42.6075 12.4925C38.855 9.14375 33.915 7.125 28.5 7.125C23.085 7.125 18.145 9.14375 14.3925 12.4925C12.2075 14.4163 10.4262 16.7675 9.19125 19.4038C5.7475 20.425 3.11125 23.3225 2.5175 26.9325C2.4225 27.4312 2.375 27.9538 2.375 28.5C2.375 29.0462 2.4225 29.5688 2.5175 30.0675C3.11125 33.6537 5.7475 36.575 9.19125 37.5963C10.4262 40.2325 12.2075 42.56 14.345 44.46C18.0975 47.8325 23.0612 49.875 28.5 49.875C33.9387 49.875 38.9025 47.8325 42.6787 44.46C44.8162 42.56 46.5975 40.2088 47.8325 37.5963C51.2525 36.575 53.8887 33.6775 54.4825 30.0675ZM45.125 33.25C44.8875 33.25 44.6737 33.2025 44.4362 33.1788C43.9612 34.77 43.2725 36.2425 42.3937 37.5963C39.425 42.1325 34.3187 45.125 28.5 45.125C22.6812 45.125 17.575 42.1325 14.6062 37.5963C13.7275 36.2425 13.0387 34.77 12.5637 33.1788C12.3262 33.2025 12.1125 33.25 11.875 33.25C9.2625 33.25 7.125 31.1125 7.125 28.5C7.125 25.8875 9.2625 23.75 11.875 23.75C12.1125 23.75 12.3262 23.7975 12.5637 23.8212C13.0387 22.23 13.7275 20.7575 14.6062 19.4038C17.575 14.8675 22.6812 11.875 28.5 11.875C34.3187 11.875 39.425 14.8675 42.3937 19.4038C43.2725 20.7575 43.9612 22.23 44.4362 23.8212C44.6737 23.7975 44.8875 23.75 45.125 23.75C47.7375 23.75 49.875 25.8875 49.875 28.5C49.875 31.1125 47.7375 33.25 45.125 33.25ZM17.8125 33.25C19.6175 37.4538 23.7262 40.375 28.5 40.375C33.2737 40.375 37.3825 37.4538 39.1875 33.25H17.8125Z" fill="white"/>
</svg>
