<?xml version="1.0" encoding="utf-8"?>
<!-- Generator: Adobe Illustrator 25.0.1, SVG Export Plug-In . SVG Version: 6.00 Build 0)  -->
<svg version="1.1" id="Layer_1" xmlns="http://www.w3.org/2000/svg" xmlns:xlink="http://www.w3.org/1999/xlink" x="0px" y="0px"
	 viewBox="0 0 57 57" style="enable-background:new 0 0 57 57;" xml:space="preserve">
<style type="text/css">
	.st0{fill:#FFFFFF;}
</style>
<g>
	<path class="st0" d="M20.4,48.6c-2.7-2.3-5.3-4.6-8-6.9c0.1-0.2,0.2-0.3,0.4-0.5c1.5-1.8,3-3.7,4.5-5.5c0.6-0.8,1-1.6,1-2.6
		c0.2-3.6,0.4-7.1,0.7-10.7c0.1-1.4,0.4-2.8,0.9-4.1c1.6-4.9,3.4-9.8,5.1-14.6c0.1-0.2,0.1-0.3,0.2-0.5c0.2-0.5,0.8-0.8,1.3-0.6
		s0.8,0.6,0.8,1.2c-0.2,1.9-0.5,3.7-0.7,5.6c-0.2,1.7-0.4,3.5-0.7,5.2c-0.2,0.1-0.5,0.1-0.7,0.2c-1.3,0.3-2.3,1.4-2.5,2.8
		c-0.3,2.9-0.5,5.7-0.7,8.6c0,0.5-0.1,1-0.1,1.5c0,0.6,0.3,1,0.9,1s1-0.3,1-1c0.2-3.1,0.5-6.2,0.7-9.3c0-0.2,0-0.4,0.1-0.6
		c0.2-0.7,0.8-1.2,1.5-1.2c0.8,0,1.3,0.6,1.4,1.4c0,0.2,0,0.3,0,0.5c0,6.2,0,12.5,0,18.7c0,1.6-0.5,3-1.4,4.2
		C24.1,43.7,22.2,46.1,20.4,48.6z"/>
	<path class="st0" d="M44.5,41.7c-2.7,2.3-5.3,4.5-8,6.8c-0.2-0.2-0.4-0.5-0.6-0.7c-1.7-2.1-3.4-4.3-5.1-6.4c-1-1.3-1.5-2.7-1.5-4.4
		c0-6.3,0-12.5,0-18.8c0-0.9,0.5-1.6,1.3-1.7c0.9-0.1,1.6,0.5,1.7,1.5c0.1,1.6,0.3,3.2,0.4,4.8c0.1,1.6,0.2,3.1,0.4,4.7
		c0,0.6,0.4,1,1,1c0.5,0,0.9-0.5,0.9-1.1c-0.2-2.2-0.3-4.5-0.5-6.7c-0.1-1-0.1-2.1-0.2-3.1c-0.2-1.7-1.2-2.8-2.9-3.1
		c-0.1,0-0.2,0-0.3,0c-0.3-2.2-0.5-4.4-0.8-6.5c-0.2-1.4-0.3-2.8-0.5-4.2c-0.1-0.7,0.2-1.2,0.8-1.4c0.6-0.1,1.1,0.2,1.3,0.8
		c1.8,5.2,3.6,10.3,5.4,15.5c0.7,2.1,0.7,4.3,0.9,6.4c0.2,2.7,0.4,5.4,0.5,8.1c0.1,0.9,0.4,1.6,0.9,2.3c1.5,1.8,3,3.7,4.5,5.5
		C44.2,41.3,44.3,41.5,44.5,41.7z"/>
	<path class="st0" d="M21.5,52c-0.9,0.9-1.8,1.7-2.6,2.5c-0.1,0.1-0.3,0.2-0.5,0.2c-5.3,0-10.6,0-15.9,0c-0.1,0-0.1,0-0.2,0
		c0-0.5,0-1,0-1.5c0-1.7,0-3.4,0-5.1c0-0.2,0-0.5,0.2-0.6c2.1-2.1,4.2-4.2,6.3-6.4C13,44.7,17.2,48.3,21.5,52z"/>
	<path class="st0" d="M54.5,54.7c-0.5,0-0.9,0-1.2,0c-4.9,0-9.8,0-14.6,0c-0.4,0-0.7-0.1-0.9-0.4c-0.8-0.8-1.5-1.6-2.3-2.4
		c4.2-3.6,8.3-7.2,12.5-10.8c0.2,0.2,0.3,0.3,0.4,0.4c1.9,1.9,3.9,3.8,5.8,5.8c0.2,0.2,0.4,0.6,0.4,0.8
		C54.5,50.3,54.5,52.5,54.5,54.7z"/>
	<path class="st0" d="M28.5,9.7c0.2,1.4,0.3,2.7,0.5,4.1c0,0.1,0,0.3,0,0.4c0.2,0.6,0.1,1.2-0.6,1.4c-0.8-0.4-0.8-0.4-0.7-1.3
		c0.2-1.5,0.4-3,0.6-4.6C28.4,9.7,28.4,9.7,28.5,9.7z"/>
</g>
</svg>
