<svg width="57" height="57" viewBox="0 0 57 57" fill="none" xmlns="http://www.w3.org/2000/svg">
<path d="M7.695 14.6063C5.96125 15.2713 4.75 17.0288 4.75 19V47.5C4.75 50.1125 6.86375 52.25 9.5 52.25H47.5C50.1363 52.25 52.25 50.1125 52.25 47.5V19C52.25 16.3638 50.1363 14.25 47.5 14.25H19.7125L39.33 6.3175L37.715 2.375L7.695 14.6063ZM16.625 47.5C12.6825 47.5 9.5 44.3175 9.5 40.375C9.5 36.4325 12.6825 33.25 16.625 33.25C20.5675 33.25 23.75 36.4325 23.75 40.375C23.75 44.3175 20.5675 47.5 16.625 47.5ZM47.5 28.5H42.75V23.75H38V28.5H9.5V19H47.5V28.5Z" fill="white"/>
</svg>
