<svg width="57" height="57" viewBox="0 0 57 57" fill="none" xmlns="http://www.w3.org/2000/svg">
<path d="M11.8746 31.3025V37.9763C11.8746 39.71 12.8246 41.325 14.3446 42.1563L26.2195 48.64C27.6445 49.4238 29.3545 49.4238 30.7795 48.64L42.6545 42.1563C44.1745 41.325 45.1245 39.71 45.1245 37.9763V31.3025L30.7795 39.14C29.3545 39.9238 27.6445 39.9238 26.2195 39.14L11.8746 31.3025ZM26.2195 8.36004L6.1983 19.285C4.55955 20.1875 4.55955 22.5625 6.1983 23.465L26.2195 34.39C27.6445 35.1738 29.3545 35.1738 30.7795 34.39L49.8745 23.9638V38C49.8745 39.3063 50.9433 40.375 52.2495 40.375C53.5558 40.375 54.6245 39.3063 54.6245 38V22.7763C54.6245 21.8975 54.1495 21.1138 53.3895 20.6863L30.7795 8.36004C29.3545 7.60004 27.6445 7.60004 26.2195 8.36004Z" fill="white"/>
</svg>
