<svg width="24" height="24" viewBox="0 0 24 24" fill="none" xmlns="http://www.w3.org/2000/svg">
<path fill-rule="evenodd" clip-rule="evenodd" d="M0 6C0 7.56746 1.00177 8.90095 2.4 9.39515V12H1.19475C0.539939 12 0 12.5348 0 13.1945V22.8055C0 23.4611 0.534906 24 1.19475 24H15.6053C16.2601 24 16.8 23.4652 16.8 22.8055V21.6H19.2L21.8527 22.9264C23.0402 23.5201 24 22.9257 24 21.6005V14.3995C24 13.0755 23.0386 12.4807 21.8527 13.0736L19.2 14.4H16.8V11.88C19.5387 11.3241 21.6 8.90275 21.6 6C21.6 2.68629 18.9137 0 15.6 0C14.8809 0 14.1914 0.126501 13.5524 0.358464L3.23275 2.4185C1.41703 2.60247 0 4.13575 0 6ZM9.6 6C9.6 6.87207 9.78605 7.70068 10.1206 8.44831L6.81219 7.62708C7.06021 7.13841 7.2 6.58553 7.2 6C7.2 5.33318 7.0187 4.7087 6.70271 4.17317L10.151 3.4848C9.79735 4.24978 9.6 5.10184 9.6 6ZM4.8 9.60045V12H14.4V11.9834L4.8 9.60045ZM14.4 5.99845V9.39515C13.0018 8.90095 12 7.56746 12 6C12 4.01178 13.6118 2.4 15.6 2.4C17.5882 2.4 19.2 4.01178 19.2 6C19.2 7.56746 18.1982 8.90095 16.8 9.39515V5.99845C16.8 5.33456 16.2627 4.8 15.6 4.8C14.9326 4.8 14.4 5.33657 14.4 5.99845ZM16.8 19.2H19.2V16.8H16.8V19.2ZM14.3947 21.6H2.39475V14.4H14.3947V21.6ZM3.6 7.2C4.26274 7.2 4.8 6.66274 4.8 6C4.8 5.33726 4.26274 4.8 3.6 4.8C2.93726 4.8 2.4 5.33726 2.4 6C2.4 6.66274 2.93726 7.2 3.6 7.2ZM6.6 18C6.6 18.9941 7.40589 19.8 8.4 19.8C9.39411 19.8 10.2 18.9941 10.2 18C10.2 17.0059 9.39411 16.2 8.4 16.2C7.40589 16.2 6.6 17.0059 6.6 18Z" fill="white"/>
</svg>
