<svg width="57" height="57" viewBox="0 0 57 57" fill="none" xmlns="http://www.w3.org/2000/svg">
<path d="M28.5 4.75C15.39 4.75 4.75 15.39 4.75 28.5C4.75 41.61 15.39 52.25 28.5 52.25C41.61 52.25 52.25 41.61 52.25 28.5C52.25 15.39 41.61 4.75 28.5 4.75ZM30.875 12.5875L34.0813 10.3313C38.4038 11.6613 42.085 14.5113 44.4837 18.2638L43.5575 21.4463L40.3512 22.5388L30.875 15.9125V12.5875ZM22.9187 10.3313L26.125 12.5875V15.9125L16.6488 22.5388L13.4425 21.4463L12.5163 18.2638C14.915 14.535 18.5962 11.685 22.9187 10.3313ZM16.815 40.6363L14.1075 40.8738C11.2337 37.5488 9.5 33.2263 9.5 28.5C9.5 28.215 9.52375 27.9538 9.5475 27.6688L11.9225 25.935L15.2 27.075L18.6675 37.3825L16.815 40.6363ZM34.4375 46.5263C32.5613 47.1438 30.5662 47.5 28.5 47.5C26.4338 47.5 24.4387 47.1438 22.5625 46.5263L20.9238 42.9875L22.4438 40.375H34.58L36.1 43.0113L34.4375 46.5263ZM33.8913 35.625H23.1087L19.9025 26.0775L28.5 20.045L37.1213 26.0775L33.8913 35.625ZM42.8925 40.8738L40.185 40.6363L38.3087 37.3825L41.7762 27.075L45.0775 25.9588L47.4525 27.6925C47.4762 27.9538 47.5 28.215 47.5 28.5C47.5 33.2263 45.7663 37.5488 42.8925 40.8738Z" fill="white"/>
</svg>
