<svg width="31" height="31" viewBox="0 0 31 31" fill="none" xmlns="http://www.w3.org/2000/svg">
<path d="M16.5594 11.4846H1.5054C0.677431 11.4846 0 12.1308 0 12.9206C0 13.7104 0.677431 14.3566 1.5054 14.3566H16.5594C17.3874 14.3566 18.0648 13.7104 18.0648 12.9206C18.0648 12.1308 17.3874 11.4846 16.5594 11.4846ZM16.5594 5.74072H1.5054C0.677431 5.74072 0 6.38691 0 7.1767C0 7.96649 0.677431 8.61268 1.5054 8.61268H16.5594C17.3874 8.61268 18.0648 7.96649 18.0648 7.1767C18.0648 6.38691 17.3874 5.74072 16.5594 5.74072ZM1.5054 20.1005H10.5378C11.3658 20.1005 12.0432 19.4543 12.0432 18.6645C12.0432 17.8747 11.3658 17.2285 10.5378 17.2285H1.5054C0.677431 17.2285 0 17.8747 0 18.6645C0 19.4543 0.677431 20.1005 1.5054 20.1005ZM30.4242 14.6581L30.5597 14.7874C31.1468 15.3474 31.1468 16.2521 30.5597 16.8121L22.1595 24.8392C21.5724 25.3992 20.624 25.3992 20.0369 24.8392L15.3852 20.402C14.7981 19.842 14.7981 18.9374 15.3852 18.3773L15.5207 18.2481C16.1078 17.6881 17.0562 17.6881 17.6433 18.2481L21.1057 21.5508L28.3016 14.6725C28.8736 14.0981 29.8371 14.0981 30.4242 14.6581V14.6581Z" fill="white"/>
</svg>
