<svg width="140" height="140" viewBox="0 0 140 140" fill="none" xmlns="http://www.w3.org/2000/svg">
<rect width="140" height="140" rx="6" fill="#7C2B90"/>
<path d="M84.5834 68.5417C88.6105 68.5417 91.8751 65.2771 91.8751 61.25C91.8751 57.223 88.6105 53.9584 84.5834 53.9584C80.5563 53.9584 77.2917 57.223 77.2917 61.25C77.2917 65.2771 80.5563 68.5417 84.5834 68.5417Z" fill="white" fill-opacity="0.08"/>
<path d="M55.4167 68.5417C59.4437 68.5417 62.7083 65.2771 62.7083 61.25C62.7083 57.223 59.4437 53.9584 55.4167 53.9584C51.3896 53.9584 48.125 57.223 48.125 61.25C48.125 65.2771 51.3896 68.5417 55.4167 68.5417Z" fill="white" fill-opacity="0.08"/>
<path d="M133.817 73.85C134.05 72.625 134.167 71.3417 134.167 70C134.167 68.6583 134.05 67.375 133.817 66.15C132.358 57.3417 125.883 50.1667 117.425 47.6583C114.333 41.125 109.958 35.4083 104.65 30.6833C95.4333 22.4583 83.2999 17.5 69.9999 17.5C56.6999 17.5 44.5666 22.4583 35.3499 30.6833C29.9832 35.4083 25.6082 41.1833 22.5749 47.6583C14.1166 50.1667 7.64158 57.2833 6.18325 66.15C5.94992 67.375 5.83325 68.6583 5.83325 70C5.83325 71.3417 5.94992 72.625 6.18325 73.85C7.64158 82.6583 14.1166 89.8333 22.5749 92.3417C25.6082 98.8167 29.9832 104.533 35.2332 109.2C44.4499 117.483 56.6416 122.5 69.9999 122.5C83.3582 122.5 95.5499 117.483 104.825 109.2C110.075 104.533 114.45 98.7583 117.483 92.3417C125.883 89.8333 132.358 82.7167 133.817 73.85ZM110.833 81.6667C110.25 81.6667 109.725 81.55 109.142 81.4917C107.975 85.4 106.283 89.0167 104.125 92.3417C96.8333 103.483 84.2916 110.833 69.9999 110.833C55.7082 110.833 43.1666 103.483 35.8749 92.3417C33.7166 89.0167 32.0249 85.4 30.8582 81.4917C30.2749 81.55 29.7499 81.6667 29.1666 81.6667C22.7499 81.6667 17.4999 76.4167 17.4999 70C17.4999 63.5833 22.7499 58.3333 29.1666 58.3333C29.7499 58.3333 30.2749 58.45 30.8582 58.5083C32.0249 54.6 33.7166 50.9833 35.8749 47.6583C43.1666 36.5167 55.7082 29.1667 69.9999 29.1667C84.2916 29.1667 96.8333 36.5167 104.125 47.6583C106.283 50.9833 107.975 54.6 109.142 58.5083C109.725 58.45 110.25 58.3333 110.833 58.3333C117.25 58.3333 122.5 63.5833 122.5 70C122.5 76.4167 117.25 81.6667 110.833 81.6667ZM43.7499 81.6667C48.1833 91.9917 58.2749 99.1667 69.9999 99.1667C81.7249 99.1667 91.8166 91.9917 96.2499 81.6667H43.7499Z" fill="white" fill-opacity="0.08"/>
<path d="M57.9141 110.917H57.3021V116H54.9731V104.1H57.3021V109.37L57.8461 109.132L61.1271 104.1H63.7791L60.3111 109.098L59.3931 109.744L60.3451 110.407L64.3061 116H61.4331L57.9141 110.917ZM65.8849 107.5H68.0949V116H65.8849V107.5ZM65.5619 105.103C65.5619 104.774 65.6809 104.497 65.9189 104.27C66.1682 104.032 66.5082 103.913 66.9389 103.913C67.3696 103.913 67.7152 104.032 67.9759 104.27C68.2479 104.497 68.3839 104.774 68.3839 105.103C68.3839 105.432 68.2479 105.709 67.9759 105.936C67.7152 106.151 67.3696 106.259 66.9389 106.259C66.5082 106.259 66.1682 106.151 65.9189 105.936C65.6809 105.709 65.5619 105.432 65.5619 105.103ZM77.6881 113.008C77.6881 113.484 77.6938 113.96 77.7051 114.436C77.7165 114.912 77.7675 115.439 77.8581 116.017H76.2771L75.9711 114.912H75.9031C75.6765 115.309 75.3478 115.632 74.9171 115.881C74.4978 116.119 73.9991 116.238 73.4211 116.238C72.3558 116.238 71.5285 115.887 70.9391 115.184C70.3498 114.481 70.0551 113.382 70.0551 111.886C70.0551 110.435 70.3838 109.308 71.0411 108.503C71.6985 107.698 72.6618 107.296 73.9311 107.296C74.2825 107.296 74.5715 107.319 74.7981 107.364C75.0248 107.398 75.2515 107.46 75.4781 107.551V104.1H77.6881V113.008ZM73.9311 114.368C74.3618 114.368 74.7018 114.266 74.9511 114.062C75.2005 113.847 75.3761 113.541 75.4781 113.144V109.54C75.3195 109.415 75.1438 109.325 74.9511 109.268C74.7585 109.2 74.5091 109.166 74.2031 109.166C73.5798 109.166 73.1095 109.376 72.7921 109.795C72.4861 110.214 72.3331 110.934 72.3331 111.954C72.3331 112.679 72.4578 113.263 72.7071 113.705C72.9678 114.147 73.3758 114.368 73.9311 114.368ZM83.363 113.654C83.363 113.427 83.2667 113.246 83.074 113.11C82.8813 112.974 82.6433 112.849 82.36 112.736C82.0767 112.623 81.765 112.509 81.425 112.396C81.085 112.271 80.7733 112.107 80.49 111.903C80.2067 111.688 79.9687 111.421 79.776 111.104C79.5833 110.775 79.487 110.356 79.487 109.846C79.487 109.007 79.7363 108.367 80.235 107.925C80.7337 107.483 81.4533 107.262 82.394 107.262C83.04 107.262 83.6237 107.33 84.145 107.466C84.6663 107.602 85.0743 107.755 85.369 107.925L84.876 109.523C84.6153 109.421 84.2867 109.313 83.89 109.2C83.4933 109.087 83.091 109.03 82.683 109.03C82.0257 109.03 81.697 109.285 81.697 109.795C81.697 109.999 81.7933 110.163 81.986 110.288C82.1787 110.413 82.4167 110.532 82.7 110.645C82.9833 110.747 83.295 110.86 83.635 110.985C83.975 111.11 84.2867 111.274 84.57 111.478C84.8533 111.671 85.0913 111.926 85.284 112.243C85.4767 112.56 85.573 112.968 85.573 113.467C85.573 114.328 85.2953 115.008 84.74 115.507C84.196 115.994 83.3743 116.238 82.275 116.238C81.6743 116.238 81.1077 116.159 80.575 116C80.0537 115.853 79.6287 115.677 79.3 115.473L79.912 113.824C80.1727 113.971 80.5183 114.119 80.949 114.266C81.3797 114.402 81.8217 114.47 82.275 114.47C82.6037 114.47 82.8643 114.408 83.057 114.283C83.261 114.158 83.363 113.949 83.363 113.654Z" fill="white"/>
<path d="M76.4375 68.9062C78.0771 68.9062 79.4062 67.5771 79.4062 65.9375C79.4062 64.2979 78.0771 62.9688 76.4375 62.9688C74.7979 62.9688 73.4688 64.2979 73.4688 65.9375C73.4688 67.5771 74.7979 68.9062 76.4375 68.9062Z" fill="white"/>
<path d="M64.5625 68.9062C66.2021 68.9062 67.5312 67.5771 67.5312 65.9375C67.5312 64.2979 66.2021 62.9688 64.5625 62.9688C62.9229 62.9688 61.5938 64.2979 61.5938 65.9375C61.5938 67.5771 62.9229 68.9062 64.5625 68.9062Z" fill="white"/>
<path d="M96.4825 71.0675C96.5775 70.5688 96.625 70.0462 96.625 69.5C96.625 68.9538 96.5775 68.4312 96.4825 67.9325C95.8887 64.3463 93.2525 61.425 89.8087 60.4038C88.55 57.7438 86.7687 55.4163 84.6075 53.4925C80.855 50.1438 75.915 48.125 70.5 48.125C65.085 48.125 60.145 50.1438 56.3925 53.4925C54.2075 55.4163 52.4262 57.7675 51.1912 60.4038C47.7475 61.425 45.1112 64.3225 44.5175 67.9325C44.4225 68.4312 44.375 68.9538 44.375 69.5C44.375 70.0462 44.4225 70.5688 44.5175 71.0675C45.1112 74.6537 47.7475 77.575 51.1912 78.5963C52.4262 81.2325 54.2075 83.56 56.345 85.46C60.0975 88.8325 65.0612 90.875 70.5 90.875C75.9387 90.875 80.9025 88.8325 84.6787 85.46C86.8162 83.56 88.5975 81.2088 89.8325 78.5963C93.2525 77.575 95.8887 74.6775 96.4825 71.0675ZM87.125 74.25C86.8875 74.25 86.6737 74.2025 86.4362 74.1788C85.9612 75.77 85.2725 77.2425 84.3937 78.5963C81.425 83.1325 76.3187 86.125 70.5 86.125C64.6812 86.125 59.575 83.1325 56.6062 78.5963C55.7275 77.2425 55.0387 75.77 54.5637 74.1788C54.3262 74.2025 54.1125 74.25 53.875 74.25C51.2625 74.25 49.125 72.1125 49.125 69.5C49.125 66.8875 51.2625 64.75 53.875 64.75C54.1125 64.75 54.3262 64.7975 54.5637 64.8212C55.0387 63.23 55.7275 61.7575 56.6062 60.4038C59.575 55.8675 64.6812 52.875 70.5 52.875C76.3187 52.875 81.425 55.8675 84.3937 60.4038C85.2725 61.7575 85.9612 63.23 86.4362 64.8212C86.6737 64.7975 86.8875 64.75 87.125 64.75C89.7375 64.75 91.875 66.8875 91.875 69.5C91.875 72.1125 89.7375 74.25 87.125 74.25ZM59.8125 74.25C61.6175 78.4538 65.7262 81.375 70.5 81.375C75.2737 81.375 79.3825 78.4538 81.1875 74.25H59.8125Z" fill="white"/>
</svg>
