<svg width="102.31" height="122.88" xmlns="http://www.w3.org/2000/svg" data-name="Layer 1">

 <title>livestream</title>
 <g>
  <title>Layer 1</title>
  <path id="svg_1" fill="#ffffff" d="m72,58.56a3.07,3.07 0 0 1 -4.76,-3.87c4.62,-5.68 7,-11.73 7,-17.75s-2.23,-11.87 -6.92,-17.61a3.07,3.07 0 0 1 4.76,-3.87c5.61,6.88 8.31,14.18 8.29,21.48c0,7.47 -2.9,14.83 -8.41,21.62l0.04,0z" class="cls-1"/>
  <path id="svg_2" fill="#ffffff" d="m87,73a3.06,3.06 0 0 1 -4.59,-4.06c9.2,-10.4 13.91,-21.26 13.73,-32.1c-0.18,-10.55 -5,-21.24 -14.82,-31.66a3.07,3.07 0 1 1 4.51,-4.18c10.91,11.55 16.27,23.63 16.47,35.73c0.21,12.42 -5,24.68 -15.26,36.26l-0.04,0.01z" class="cls-1"/>
  <path id="svg_3" fill="#ffffff" d="m35,54.69a3.06,3.06 0 1 1 -4.75,3.87c-5.52,-6.79 -8.39,-14.15 -8.41,-21.62c0,-7.3 2.68,-14.6 8.29,-21.48a3.07,3.07 0 1 1 4.76,3.87c-4.66,5.74 -6.89,11.72 -6.89,17.61s2.41,12.06 7,17.75z" class="cls-1"/>
  <path id="svg_4" fill="#ffffff" d="m19.86,68.93a3.06,3.06 0 0 1 -4.59,4.07c-10.27,-11.58 -15.47,-23.85 -15.27,-36.27c0.21,-12.1 5.56,-24.18 16.47,-35.73a3.07,3.07 0 1 1 4.47,4.2c-9.82,10.39 -14.63,21.08 -14.81,31.63c-0.13,10.84 4.52,21.7 13.73,32.1z" class="cls-1"/>
  <rect id="svg_6" height="29.74998" width="63.74995" y="86.80989" x="20.15503" fill="#ffffff"/>
  <path id="svg_5" fill-rule="evenodd" fill="#ff0000" d="m18.48,82l65.36,0a4.64,4.64 0 0 1 4.63,4.62l0,31.63a4.65,4.65 0 0 1 -4.63,4.63l-65.36,0a4.65,4.65 0 0 1 -4.63,-4.63l0,-31.63a4.64,4.64 0 0 1 4.63,-4.62zm26.3,-38.58a9,9 0 1 1 12.75,0a8.26,8.26 0 0 1 -2.19,1.58a9.36,9.36 0 0 1 -10.56,-1.62l0,0.04zm-11.72,47.42l0,18.56l3.84,0l0,4.6l-10.23,0l0,-23.16l6.39,0zm12.46,0l0,23.16l-6.39,0l0,-23.16l6.39,0zm18.34,0l-3.23,23.16l-9.63,0l-3.7,-23.19l6.7,0q1.14,9.6 1.66,16.23q0.51,-6.7 1.05,-11.9l0.42,-4.33l6.73,0.03zm1.76,0l10.64,0l0,4.64l-4.26,0l0,4.43l4,0l0,4.39l-4,0l0,5.11l4.7,0l0,4.59l-11.08,0l0,-23.16z" class="cls-2"/>
 </g>
</svg>