<svg width="140" height="140" viewBox="0 0 140 140" fill="none" xmlns="http://www.w3.org/2000/svg">
<rect width="140" height="140" rx="12" fill="#363092"/>
<path fill-rule="evenodd" clip-rule="evenodd" d="M12 40C12 47.8373 17.0088 54.5047 24 56.9758V70H17.9737C14.6997 70 12 72.6739 12 75.9724V124.028C12 127.305 14.6745 130 17.9737 130H90.0263C93.3003 130 96 127.326 96 124.028V118H108L121.264 124.632C127.201 127.6 132 124.628 132 118.002V81.9977C132 75.3774 127.193 72.4034 121.264 75.3682L108 82H96V69.3999C109.693 66.6203 120 54.5137 120 40C120 23.4315 106.569 10 90 10C86.4045 10 82.9568 10.6325 79.762 11.7923L28.1638 22.0925C19.0852 23.0124 12 30.6788 12 40ZM60 40.0003C60 44.3606 60.9303 48.5037 62.6031 52.2418L46.061 48.1357C47.3011 45.6923 48 42.9279 48 40.0003C48 36.6662 47.0935 33.5438 45.5136 30.8661L62.7552 27.4243C60.9867 31.2492 60 35.5095 60 40.0003ZM35.9992 58.0022V70H83.9992V69.9169L35.9992 58.0022ZM84 39.9925V56.976C77.0088 54.505 72 47.8376 72 40.0003C72 30.0591 80.0589 22.0003 90 22.0003C99.9411 22.0003 108 30.0591 108 40.0003C108 47.8376 102.991 54.505 96 56.976V39.9925C96 36.673 93.3137 34.0003 90 34.0003C86.6632 34.0003 84 36.6831 84 39.9925ZM107.999 106V94.0002H95.9992V106H107.999ZM83.9724 118H23.9724V82H83.9724V118ZM29.9996 46.0003C33.3133 46.0003 35.9996 43.314 35.9996 40.0003C35.9996 36.6866 33.3133 34.0003 29.9996 34.0003C26.6859 34.0003 23.9996 36.6866 23.9996 40.0003C23.9996 43.314 26.6859 46.0003 29.9996 46.0003ZM45.0004 99.9998C45.0004 104.97 49.0299 109 54.0004 109C58.971 109 63.0004 104.97 63.0004 99.9998C63.0004 95.0292 58.971 90.9998 54.0004 90.9998C49.0299 90.9998 45.0004 95.0292 45.0004 99.9998Z" fill="white" fill-opacity="0.08"/>
<path fill-rule="evenodd" clip-rule="evenodd" d="M41 46.25C41 49.9727 43.3792 53.1398 46.7 54.3135V60.5H43.8375C42.2824 60.5 41 61.7701 41 63.3369V86.1631C41 87.72 42.2704 89 43.8375 89H78.0625C79.6176 89 80.9 87.7299 80.9 86.1631V83.3H86.6L92.9002 86.4501C95.7204 87.8602 98 86.4485 98 83.3011V66.1989C98 63.0543 95.7167 61.6416 92.9002 63.0499L86.6 66.2H80.9V60.2149C87.4044 58.8946 92.3 53.144 92.3 46.25C92.3 38.3799 85.9201 32 78.05 32C76.3422 32 74.7045 32.3004 73.1869 32.8514L48.6778 37.7439C44.3654 38.1809 41 41.8224 41 46.25ZM63.8 46.2501C63.8 48.3213 64.2419 50.2892 65.0365 52.0649L57.1789 50.1145C57.768 48.9539 58.1 47.6408 58.1 46.2501C58.1 44.6664 57.6694 43.1833 56.9189 41.9114L65.1087 40.2766C64.2687 42.0934 63.8 44.117 63.8 46.2501ZM52.3996 54.8011V60.5001H75.1996V60.4606L52.3996 54.8011ZM75.2 46.2464V54.3135C71.8792 53.1398 69.5 49.9728 69.5 46.2501C69.5 41.528 73.328 37.7 78.05 37.7C82.772 37.7 86.6 41.528 86.6 46.2501C86.6 49.9728 84.2208 53.1398 80.9 54.3135V46.2464C80.9 44.6696 79.624 43.4001 78.05 43.4001C76.465 43.4001 75.2 44.6744 75.2 46.2464ZM86.5996 77.6001V71.9001H80.8996V77.6001H86.5996ZM75.1869 83.3H46.6869V66.2001H75.1869V83.3ZM49.5498 49.1001C51.1238 49.1001 52.3998 47.8241 52.3998 46.2501C52.3998 44.6761 51.1238 43.4001 49.5498 43.4001C47.9758 43.4001 46.6998 44.6761 46.6998 46.2501C46.6998 47.8241 47.9758 49.1001 49.5498 49.1001ZM56.6752 74.7499C56.6752 77.1109 58.5892 79.0249 60.9502 79.0249C63.3112 79.0249 65.2252 77.1109 65.2252 74.7499C65.2252 72.3889 63.3112 70.4749 60.9502 70.4749C58.5892 70.4749 56.6752 72.3889 56.6752 74.7499Z" fill="white"/>
<path d="M17.8638 105.829L18.1188 103.466H18.0168L17.2858 105.37L14.7528 109.807H14.0048L11.3358 105.353L10.5878 103.466H10.5028L10.8428 105.812V112H8.6328V100.1H10.7578L13.9368 105.54L14.4978 106.9H14.5658L15.0758 105.506L18.0848 100.1H20.1928V112H17.8638V105.829ZM21.9873 107.75C21.9873 106.311 22.3386 105.206 23.0413 104.435C23.7439 103.653 24.7299 103.262 25.9993 103.262C26.6793 103.262 27.2686 103.37 27.7673 103.585C28.2659 103.8 28.6796 104.106 29.0083 104.503C29.3369 104.888 29.5806 105.359 29.7393 105.914C29.9093 106.469 29.9943 107.081 29.9943 107.75C29.9943 109.189 29.6429 110.3 28.9403 111.082C28.2489 111.853 27.2686 112.238 25.9993 112.238C25.3193 112.238 24.7299 112.13 24.2313 111.915C23.7326 111.7 23.3133 111.399 22.9733 111.014C22.6446 110.617 22.3953 110.141 22.2253 109.586C22.0666 109.031 21.9873 108.419 21.9873 107.75ZM24.2653 107.75C24.2653 108.124 24.2993 108.47 24.3673 108.787C24.4353 109.104 24.5373 109.382 24.6733 109.62C24.8093 109.858 24.9849 110.045 25.2003 110.181C25.4269 110.306 25.6933 110.368 25.9993 110.368C26.5773 110.368 27.0079 110.158 27.2913 109.739C27.5746 109.32 27.7163 108.657 27.7163 107.75C27.7163 106.968 27.5859 106.339 27.3253 105.863C27.0646 105.376 26.6226 105.132 25.9993 105.132C25.4553 105.132 25.0303 105.336 24.7243 105.744C24.4183 106.152 24.2653 106.821 24.2653 107.75ZM34.4847 107.954L34.7737 109.263H34.8587L35.0967 107.92L36.5417 103.5H38.9217L35.3687 112.085H34.0257L30.3367 103.5H32.9037L34.4847 107.954ZM40.0661 103.5H42.2761V112H40.0661V103.5ZM39.7431 101.103C39.7431 100.774 39.8621 100.497 40.1001 100.27C40.3494 100.032 40.6894 99.913 41.1201 99.913C41.5507 99.913 41.8964 100.032 42.1571 100.27C42.4291 100.497 42.5651 100.774 42.5651 101.103C42.5651 101.432 42.4291 101.709 42.1571 101.936C41.8964 102.151 41.5507 102.259 41.1201 102.259C40.6894 102.259 40.3494 102.151 40.1001 101.936C39.8621 101.709 39.7431 101.432 39.7431 101.103ZM51.4443 111.269C51.1043 111.541 50.6396 111.773 50.0503 111.966C49.4723 112.147 48.8546 112.238 48.1973 112.238C46.826 112.238 45.823 111.841 45.1883 111.048C44.5536 110.243 44.2363 109.144 44.2363 107.75C44.2363 106.254 44.5933 105.132 45.3073 104.384C46.0213 103.636 47.0243 103.262 48.3163 103.262C48.747 103.262 49.1663 103.319 49.5743 103.432C49.9823 103.545 50.345 103.732 50.6623 103.993C50.9796 104.254 51.2346 104.605 51.4273 105.047C51.62 105.489 51.7163 106.039 51.7163 106.696C51.7163 106.934 51.6993 107.189 51.6653 107.461C51.6426 107.733 51.603 108.016 51.5463 108.311H46.4463C46.4803 109.025 46.6616 109.563 46.9903 109.926C47.3303 110.289 47.8743 110.47 48.6223 110.47C49.087 110.47 49.5006 110.402 49.8633 110.266C50.2373 110.119 50.5206 109.971 50.7133 109.824L51.4443 111.269ZM48.2823 105.03C47.7043 105.03 47.2736 105.206 46.9903 105.557C46.7183 105.897 46.554 106.356 46.4973 106.934H49.6593C49.7046 106.322 49.6083 105.852 49.3703 105.523C49.1436 105.194 48.781 105.03 48.2823 105.03ZM57.0129 109.654C57.0129 109.427 56.9166 109.246 56.7239 109.11C56.5312 108.974 56.2932 108.849 56.0099 108.736C55.7266 108.623 55.4149 108.509 55.0749 108.396C54.7349 108.271 54.4232 108.107 54.1399 107.903C53.8566 107.688 53.6186 107.421 53.4259 107.104C53.2332 106.775 53.1369 106.356 53.1369 105.846C53.1369 105.007 53.3862 104.367 53.8849 103.925C54.3836 103.483 55.1032 103.262 56.0439 103.262C56.6899 103.262 57.2736 103.33 57.7949 103.466C58.3162 103.602 58.7242 103.755 59.0189 103.925L58.5259 105.523C58.2652 105.421 57.9366 105.313 57.5399 105.2C57.1432 105.087 56.7409 105.03 56.3329 105.03C55.6756 105.03 55.3469 105.285 55.3469 105.795C55.3469 105.999 55.4432 106.163 55.6359 106.288C55.8286 106.413 56.0666 106.532 56.3499 106.645C56.6332 106.747 56.9449 106.86 57.2849 106.985C57.6249 107.11 57.9366 107.274 58.2199 107.478C58.5032 107.671 58.7412 107.926 58.9339 108.243C59.1266 108.56 59.2229 108.968 59.2229 109.467C59.2229 110.328 58.9452 111.008 58.3899 111.507C57.8459 111.994 57.0242 112.238 55.9249 112.238C55.3242 112.238 54.7576 112.159 54.2249 112C53.7036 111.853 53.2786 111.677 52.9499 111.473L53.5619 109.824C53.8226 109.971 54.1682 110.119 54.5989 110.266C55.0296 110.402 55.4716 110.47 55.9249 110.47C56.2536 110.47 56.5142 110.408 56.7069 110.283C56.9109 110.158 57.0129 109.949 57.0129 109.654ZM65.9942 108.702C65.9942 108.271 66.0622 107.863 66.1982 107.478C66.3455 107.081 66.5438 106.713 66.7932 106.373C67.0538 106.033 67.3598 105.716 67.7112 105.421C68.0625 105.126 68.4422 104.866 68.8502 104.639C68.5668 104.265 68.3345 103.885 68.1532 103.5C67.9718 103.115 67.8812 102.707 67.8812 102.276C67.8812 101.993 67.9322 101.709 68.0342 101.426C68.1475 101.131 68.3175 100.871 68.5442 100.644C68.7822 100.406 69.0882 100.219 69.4622 100.083C69.8362 99.9357 70.2895 99.862 70.8222 99.862C71.3435 99.862 71.7855 99.9243 72.1482 100.049C72.5222 100.174 72.8225 100.338 73.0492 100.542C73.2758 100.746 73.4402 100.978 73.5422 101.239C73.6442 101.5 73.6952 101.766 73.6952 102.038C73.6952 102.503 73.5308 102.99 73.2022 103.5C72.8735 103.999 72.3125 104.48 71.5192 104.945C71.9158 105.557 72.3125 106.118 72.7092 106.628C73.1058 107.138 73.5478 107.642 74.0352 108.141C74.2958 107.858 74.5282 107.506 74.7322 107.087C74.9475 106.656 75.1345 106.22 75.2932 105.778L76.8912 106.628C76.8232 106.832 76.7268 107.059 76.6022 107.308C76.4888 107.546 76.3585 107.79 76.2112 108.039C76.0752 108.288 75.9335 108.526 75.7862 108.753C75.6388 108.968 75.5028 109.155 75.3782 109.314C75.7408 109.643 76.0582 109.903 76.3302 110.096C76.6022 110.277 76.8798 110.447 77.1632 110.606L75.9902 112.238C75.6728 112.091 75.3442 111.898 75.0042 111.66C74.6755 111.411 74.3468 111.127 74.0182 110.81C73.6102 111.184 73.1002 111.518 72.4882 111.813C71.8762 112.096 71.1225 112.238 70.2272 112.238C69.6378 112.238 69.0825 112.159 68.5612 112C68.0512 111.841 67.6035 111.609 67.2182 111.303C66.8442 110.997 66.5438 110.629 66.3172 110.198C66.1018 109.756 65.9942 109.257 65.9942 108.702ZM72.6922 109.467C72.1142 108.866 71.5872 108.271 71.1112 107.682C70.6352 107.081 70.2215 106.515 69.8702 105.982C69.3262 106.401 68.9125 106.809 68.6292 107.206C68.3458 107.591 68.2042 108.028 68.2042 108.515C68.2042 109.093 68.4138 109.546 68.8332 109.875C69.2638 110.204 69.8248 110.368 70.5162 110.368C70.9695 110.368 71.3945 110.277 71.7912 110.096C72.1878 109.903 72.4882 109.694 72.6922 109.467ZM70.0912 102.378C70.0912 102.854 70.2952 103.364 70.7032 103.908C71.1452 103.625 71.4625 103.358 71.6552 103.109C71.8592 102.86 71.9612 102.622 71.9612 102.395C71.9612 102.123 71.8818 101.908 71.7232 101.749C71.5758 101.59 71.3322 101.511 70.9922 101.511C70.6862 101.511 70.4595 101.59 70.3122 101.749C70.1648 101.908 70.0912 102.117 70.0912 102.378ZM87.4246 107.087L87.7306 109.11H87.8156L88.1556 107.07L90.4336 100.1H92.8816L88.4616 112.085H86.7956L82.3416 100.1H85.0446L87.4246 107.087ZM94.111 103.5H96.321V112H94.111V103.5ZM93.788 101.103C93.788 100.774 93.907 100.497 94.145 100.27C94.3943 100.032 94.7343 99.913 95.165 99.913C95.5956 99.913 95.9413 100.032 96.202 100.27C96.474 100.497 96.61 100.774 96.61 101.103C96.61 101.432 96.474 101.709 96.202 101.936C95.9413 102.151 95.5956 102.259 95.165 102.259C94.7343 102.259 94.3943 102.151 94.145 101.936C93.907 101.709 93.788 101.432 93.788 101.103ZM105.914 109.008C105.914 109.484 105.92 109.96 105.931 110.436C105.943 110.912 105.994 111.439 106.084 112.017H104.503L104.197 110.912H104.129C103.903 111.309 103.574 111.632 103.143 111.881C102.724 112.119 102.225 112.238 101.647 112.238C100.582 112.238 99.7545 111.887 99.1652 111.184C98.5759 110.481 98.2812 109.382 98.2812 107.886C98.2812 106.435 98.6099 105.308 99.2672 104.503C99.9245 103.698 100.888 103.296 102.157 103.296C102.509 103.296 102.798 103.319 103.024 103.364C103.251 103.398 103.478 103.46 103.704 103.551V100.1H105.914V109.008ZM102.157 110.368C102.588 110.368 102.928 110.266 103.177 110.062C103.427 109.847 103.602 109.541 103.704 109.144V105.54C103.546 105.415 103.37 105.325 103.177 105.268C102.985 105.2 102.735 105.166 102.429 105.166C101.806 105.166 101.336 105.376 101.018 105.795C100.712 106.214 100.559 106.934 100.559 107.954C100.559 108.679 100.684 109.263 100.933 109.705C101.194 110.147 101.602 110.368 102.157 110.368ZM114.87 111.269C114.53 111.541 114.065 111.773 113.476 111.966C112.898 112.147 112.28 112.238 111.623 112.238C110.252 112.238 109.249 111.841 108.614 111.048C107.979 110.243 107.662 109.144 107.662 107.75C107.662 106.254 108.019 105.132 108.733 104.384C109.447 103.636 110.45 103.262 111.742 103.262C112.173 103.262 112.592 103.319 113 103.432C113.408 103.545 113.771 103.732 114.088 103.993C114.405 104.254 114.66 104.605 114.853 105.047C115.046 105.489 115.142 106.039 115.142 106.696C115.142 106.934 115.125 107.189 115.091 107.461C115.068 107.733 115.029 108.016 114.972 108.311H109.872C109.906 109.025 110.087 109.563 110.416 109.926C110.756 110.289 111.3 110.47 112.048 110.47C112.513 110.47 112.926 110.402 113.289 110.266C113.663 110.119 113.946 109.971 114.139 109.824L114.87 111.269ZM111.708 105.03C111.13 105.03 110.699 105.206 110.416 105.557C110.144 105.897 109.98 106.356 109.923 106.934H113.085C113.13 106.322 113.034 105.852 112.796 105.523C112.569 105.194 112.207 105.03 111.708 105.03ZM116.429 107.75C116.429 106.311 116.78 105.206 117.483 104.435C118.185 103.653 119.171 103.262 120.441 103.262C121.121 103.262 121.71 103.37 122.209 103.585C122.707 103.8 123.121 104.106 123.45 104.503C123.778 104.888 124.022 105.359 124.181 105.914C124.351 106.469 124.436 107.081 124.436 107.75C124.436 109.189 124.084 110.3 123.382 111.082C122.69 111.853 121.71 112.238 120.441 112.238C119.761 112.238 119.171 112.13 118.673 111.915C118.174 111.7 117.755 111.399 117.415 111.014C117.086 110.617 116.837 110.141 116.667 109.586C116.508 109.031 116.429 108.419 116.429 107.75ZM118.707 107.75C118.707 108.124 118.741 108.47 118.809 108.787C118.877 109.104 118.979 109.382 119.115 109.62C119.251 109.858 119.426 110.045 119.642 110.181C119.868 110.306 120.135 110.368 120.441 110.368C121.019 110.368 121.449 110.158 121.733 109.739C122.016 109.32 122.158 108.657 122.158 107.75C122.158 106.968 122.027 106.339 121.767 105.863C121.506 105.376 121.064 105.132 120.441 105.132C119.897 105.132 119.472 105.336 119.166 105.744C118.86 106.152 118.707 106.821 118.707 107.75ZM129.703 109.654C129.703 109.427 129.607 109.246 129.414 109.11C129.222 108.974 128.984 108.849 128.7 108.736C128.417 108.623 128.105 108.509 127.765 108.396C127.425 108.271 127.114 108.107 126.83 107.903C126.547 107.688 126.309 107.421 126.116 107.104C125.924 106.775 125.827 106.356 125.827 105.846C125.827 105.007 126.077 104.367 126.575 103.925C127.074 103.483 127.794 103.262 128.734 103.262C129.38 103.262 129.964 103.33 130.485 103.466C131.007 103.602 131.415 103.755 131.709 103.925L131.216 105.523C130.956 105.421 130.627 105.313 130.23 105.2C129.834 105.087 129.431 105.03 129.023 105.03C128.366 105.03 128.037 105.285 128.037 105.795C128.037 105.999 128.134 106.163 128.326 106.288C128.519 106.413 128.757 106.532 129.04 106.645C129.324 106.747 129.635 106.86 129.975 106.985C130.315 107.11 130.627 107.274 130.91 107.478C131.194 107.671 131.432 107.926 131.624 108.243C131.817 108.56 131.913 108.968 131.913 109.467C131.913 110.328 131.636 111.008 131.08 111.507C130.536 111.994 129.715 112.238 128.615 112.238C128.015 112.238 127.448 112.159 126.915 112C126.394 111.853 125.969 111.677 125.64 111.473L126.252 109.824C126.513 109.971 126.859 110.119 127.289 110.266C127.72 110.402 128.162 110.47 128.615 110.47C128.944 110.47 129.205 110.408 129.397 110.283C129.601 110.158 129.703 109.949 129.703 109.654Z" fill="white"/>
</svg>
