<svg width="140" height="140" viewBox="0 0 140 140" fill="none" xmlns="http://www.w3.org/2000/svg">
<rect width="140" height="140" rx="12" fill="#075A4E"/>
<path d="M18.8998 35.8749C14.6415 37.5083 11.6665 41.8249 11.6665 46.6666V116.667C11.6665 123.083 16.8582 128.333 23.3332 128.333H116.667C123.142 128.333 128.333 123.083 128.333 116.667V46.6666C128.333 40.1916 123.142 34.9999 116.667 34.9999H48.4165L96.5999 15.5166L92.6332 5.83325L18.8998 35.8749ZM40.8332 116.667C31.1498 116.667 23.3332 108.85 23.3332 99.1666C23.3332 89.4832 31.1498 81.6666 40.8332 81.6666C50.5165 81.6666 58.3332 89.4832 58.3332 99.1666C58.3332 108.85 50.5165 116.667 40.8332 116.667ZM116.667 69.9999H105V58.3332H93.3332V69.9999H23.3332V46.6666H116.667V69.9999Z" fill="white" fill-opacity="0.08"/>
<path d="M51.695 46.6063C49.9613 47.2713 48.75 49.0288 48.75 51V79.5C48.75 82.1125 50.8638 84.25 53.5 84.25H91.5C94.1363 84.25 96.25 82.1125 96.25 79.5V51C96.25 48.3638 94.1363 46.25 91.5 46.25H63.7125L83.33 38.3175L81.715 34.375L51.695 46.6063ZM60.625 79.5C56.6825 79.5 53.5 76.3175 53.5 72.375C53.5 68.4325 56.6825 65.25 60.625 65.25C64.5675 65.25 67.75 68.4325 67.75 72.375C67.75 76.3175 64.5675 79.5 60.625 79.5ZM91.5 60.5H86.75V55.75H82V60.5H53.5V51H91.5V60.5Z" fill="white"/>
<path d="M58.8994 105.829L59.1544 103.466H59.0524L58.3214 105.37L55.7884 109.807H55.0404L52.3714 105.353L51.6234 103.466H51.5384L51.8784 105.812V112H49.6684V100.1H51.7934L54.9724 105.54L55.5334 106.9H55.6014L56.1114 105.506L59.1204 100.1H61.2284V112H58.8994V105.829ZM65.5559 103.5V108.328C65.5559 109.019 65.6352 109.518 65.7939 109.824C65.9639 110.13 66.2869 110.283 66.7629 110.283C67.1822 110.283 67.5279 110.158 67.7999 109.909C68.0832 109.66 68.2929 109.354 68.4289 108.991V103.5H70.6389V109.416C70.6389 109.881 70.6616 110.34 70.7069 110.793C70.7522 111.235 70.8202 111.637 70.9109 112H69.2449L68.8539 110.742H68.7859C68.5252 111.173 68.1626 111.53 67.6979 111.813C67.2332 112.096 66.6836 112.238 66.0489 112.238C65.6182 112.238 65.2329 112.181 64.8929 112.068C64.5529 111.955 64.2696 111.768 64.0429 111.507C63.8162 111.246 63.6406 110.895 63.5159 110.453C63.4026 110.011 63.3459 109.456 63.3459 108.787V103.5H65.5559ZM76.3142 109.654C76.3142 109.427 76.2178 109.246 76.0252 109.11C75.8325 108.974 75.5945 108.849 75.3112 108.736C75.0278 108.623 74.7162 108.509 74.3762 108.396C74.0362 108.271 73.7245 108.107 73.4412 107.903C73.1578 107.688 72.9198 107.421 72.7272 107.104C72.5345 106.775 72.4382 106.356 72.4382 105.846C72.4382 105.007 72.6875 104.367 73.1862 103.925C73.6848 103.483 74.4045 103.262 75.3452 103.262C75.9912 103.262 76.5748 103.33 77.0962 103.466C77.6175 103.602 78.0255 103.755 78.3202 103.925L77.8272 105.523C77.5665 105.421 77.2378 105.313 76.8412 105.2C76.4445 105.087 76.0422 105.03 75.6342 105.03C74.9768 105.03 74.6482 105.285 74.6482 105.795C74.6482 105.999 74.7445 106.163 74.9372 106.288C75.1298 106.413 75.3678 106.532 75.6512 106.645C75.9345 106.747 76.2462 106.86 76.5862 106.985C76.9262 107.11 77.2378 107.274 77.5212 107.478C77.8045 107.671 78.0425 107.926 78.2352 108.243C78.4278 108.56 78.5242 108.968 78.5242 109.467C78.5242 110.328 78.2465 111.008 77.6912 111.507C77.1472 111.994 76.3255 112.238 75.2262 112.238C74.6255 112.238 74.0588 112.159 73.5262 112C73.0048 111.853 72.5798 111.677 72.2512 111.473L72.8632 109.824C73.1238 109.971 73.4695 110.119 73.9002 110.266C74.3308 110.402 74.7728 110.47 75.2262 110.47C75.5548 110.47 75.8155 110.408 76.0082 110.283C76.2122 110.158 76.3142 109.949 76.3142 109.654ZM80.3878 103.5H82.5978V112H80.3878V103.5ZM80.0648 101.103C80.0648 100.774 80.1838 100.497 80.4218 100.27C80.6712 100.032 81.0112 99.913 81.4418 99.913C81.8725 99.913 82.2182 100.032 82.4788 100.27C82.7508 100.497 82.8868 100.774 82.8868 101.103C82.8868 101.432 82.7508 101.709 82.4788 101.936C82.2182 102.151 81.8725 102.259 81.4418 102.259C81.0112 102.259 80.6712 102.151 80.4218 101.936C80.1838 101.709 80.0648 101.432 80.0648 101.103ZM90.9841 111.473C90.6441 111.722 90.2304 111.909 89.7431 112.034C89.2671 112.17 88.7741 112.238 88.2641 112.238C87.5841 112.238 87.0061 112.13 86.5301 111.915C86.0654 111.7 85.6857 111.399 85.3911 111.014C85.0964 110.617 84.8811 110.141 84.7451 109.586C84.6204 109.031 84.5581 108.419 84.5581 107.75C84.5581 106.311 84.8811 105.206 85.5271 104.435C86.1731 103.653 87.1137 103.262 88.3491 103.262C88.9724 103.262 89.4711 103.313 89.8451 103.415C90.2304 103.517 90.5761 103.647 90.8821 103.806L90.3551 105.608C90.0944 105.483 89.8337 105.387 89.5731 105.319C89.3237 105.251 89.0347 105.217 88.7061 105.217C88.0941 105.217 87.6294 105.421 87.3121 105.829C86.9947 106.226 86.8361 106.866 86.8361 107.75C86.8361 108.113 86.8757 108.447 86.9551 108.753C87.0344 109.059 87.1534 109.325 87.3121 109.552C87.4707 109.779 87.6747 109.96 87.9241 110.096C88.1847 110.221 88.4851 110.283 88.8251 110.283C89.1991 110.283 89.5164 110.238 89.7771 110.147C90.0377 110.045 90.2701 109.926 90.4741 109.79L90.9841 111.473Z" fill="white"/>
</svg>
