<?xml version="1.0" encoding="utf-8"?>
<!-- Generator: Adobe Illustrator 25.0.0, SVG Export Plug-In . SVG Version: 6.00 Build 0)  -->
<svg version="1.1" id="Layer_1" xmlns="http://www.w3.org/2000/svg" xmlns:xlink="http://www.w3.org/1999/xlink" x="0px" y="0px"
	 viewBox="0 0 140 140" style="enable-background:new 0 0 140 140;" xml:space="preserve">
<style type="text/css">
	.st0{fill:#578044;}
	.st1{opacity:8.000000e-02;}
	.st2{fill:#FFFFFF;}
</style>
<path class="st0" d="M6,0h128c3.3,0,6,2.7,6,6v128c0,3.3-2.7,6-6,6H6c-3.3,0-6-2.7-6-6V6C0,2.7,2.7,0,6,0z"/>
<g class="st1">
	<g>
		<path class="st2" d="M50.5,113.7c-5.8-5.1-11.6-10-17.4-15.1c0.3-0.4,0.5-0.7,0.8-1.1c3.3-4,6.5-8.1,9.8-12
			c1.4-1.7,2.1-3.6,2.2-5.7c0.5-7.8,0.9-15.6,1.6-23.4c0.3-3.1,0.9-6.1,1.9-9.1c3.6-10.7,7.4-21.3,11.1-32c0.1-0.4,0.2-0.7,0.4-1.1
			c0.5-1.1,1.7-1.7,2.8-1.3c1.1,0.3,1.8,1.4,1.7,2.7c-0.5,4.1-1,8.2-1.5,12.3c-0.5,3.8-1,7.6-1.4,11.4c-0.5,0.1-1,0.2-1.5,0.3
			c-2.9,0.7-5.1,3.1-5.4,6.1c-0.6,6.3-1,12.5-1.5,18.8c-0.1,1.1-0.2,2.1-0.2,3.2c0,1.3,0.7,2.2,1.9,2.3c1.2,0.1,2.1-0.7,2.2-2.1
			c0.5-6.8,1-13.6,1.6-20.3c0-0.5,0.1-0.9,0.2-1.4c0.3-1.6,1.7-2.7,3.3-2.6c1.6,0.1,3,1.4,3.1,3c0,0.4,0,0.8,0,1.1
			c0,13.6,0,27.3,0,40.9c0,3.4-1,6.5-3.2,9.2C58.8,103.1,54.7,108.3,50.5,113.7z"/>
		<path class="st2" d="M103.3,98.6c-5.8,5-11.6,9.9-17.4,15c-0.4-0.5-0.8-1-1.2-1.5c-3.7-4.7-7.4-9.4-11.1-14.1
			c-2.2-2.8-3.3-6-3.3-9.5c0-13.7,0-27.4,0-41.1c0-2.1,1.1-3.4,2.8-3.7c2-0.2,3.5,1,3.7,3.2c0.3,3.5,0.6,7,0.8,10.5
			c0.3,3.4,0.5,6.9,0.8,10.3c0.1,1.4,1,2.2,2.1,2.2c1.2-0.1,2-1,1.9-2.4c-0.3-4.9-0.7-9.7-1.1-14.6c-0.2-2.2-0.3-4.5-0.5-6.7
			c-0.4-3.8-2.6-6.1-6.3-6.8c-0.2,0-0.4-0.1-0.7-0.1c-0.6-4.8-1.2-9.6-1.8-14.3c-0.4-3-0.7-6.1-1.1-9.1c-0.2-1.5,0.5-2.6,1.7-3
			c1.2-0.3,2.4,0.4,2.9,1.8c3.9,11.3,7.9,22.6,11.8,33.9c1.6,4.6,1.6,9.3,2,14.1c0.4,5.9,0.8,11.9,1.2,17.8c0.1,1.9,0.9,3.5,2.1,5
			c3.3,4,6.6,8,9.8,12C102.7,97.8,102.9,98.2,103.3,98.6z"/>
		<path class="st2" d="M53,121.3c-2,1.9-3.8,3.7-5.8,5.5c-0.2,0.2-0.7,0.3-1,0.3c-11.6,0-23.1,0-34.7,0c-0.1,0-0.2,0-0.5-0.1
			c0-1.1,0-2.3,0-3.4c0-3.7,0-7.4,0-11.1c0-0.5,0.1-1.1,0.4-1.4c4.6-4.6,9.2-9.2,13.8-13.9C34.5,105.2,43.6,113.2,53,121.3z"/>
		<path class="st2" d="M125.3,127.1c-1,0-1.9,0-2.7,0c-10.7,0-21.3,0-32,0c-0.8,0-1.4-0.2-2-0.8c-1.6-1.8-3.3-3.5-5.1-5.4
			c9.1-7.8,18.2-15.7,27.4-23.6c0.4,0.4,0.7,0.6,1,0.9c4.2,4.2,8.4,8.4,12.6,12.6c0.4,0.5,0.8,1.2,0.8,1.8
			C125.3,117.5,125.3,122.2,125.3,127.1z"/>
		<path class="st2" d="M68.3,28.6c0.4,3,0.7,5.9,1.1,8.9c0,0.3,0,0.6,0.1,0.9c0.4,1.4,0.3,2.5-1.4,3.1c-1.7-0.9-1.7-0.9-1.4-2.9
			c0.4-3.3,0.8-6.6,1.3-10C68.1,28.6,68.2,28.6,68.3,28.6z"/>
	</g>
</g>
<g>
	<path class="st2" d="M61.9,90c-2.7-2.3-5.3-4.6-8-6.9c0.1-0.2,0.2-0.3,0.4-0.5c1.5-1.8,3-3.7,4.5-5.5c0.6-0.8,1-1.6,1-2.6
		c0.2-3.6,0.4-7.1,0.7-10.7c0.1-1.4,0.4-2.8,0.9-4.1c1.6-4.9,3.4-9.8,5.1-14.6c0.1-0.2,0.1-0.3,0.2-0.5c0.2-0.5,0.8-0.8,1.3-0.6
		c0.5,0.2,0.8,0.6,0.8,1.2c-0.2,1.9-0.5,3.7-0.7,5.6c-0.2,1.7-0.4,3.5-0.7,5.2c-0.2,0.1-0.5,0.1-0.7,0.2c-1.3,0.3-2.3,1.4-2.5,2.8
		c-0.3,2.9-0.5,5.7-0.7,8.6c0,0.5-0.1,1-0.1,1.5c0,0.6,0.3,1,0.9,1c0.6,0,1-0.3,1-1c0.2-3.1,0.5-6.2,0.7-9.3c0-0.2,0-0.4,0.1-0.6
		c0.2-0.7,0.8-1.2,1.5-1.2c0.8,0,1.3,0.6,1.4,1.4c0,0.2,0,0.3,0,0.5c0,6.2,0,12.5,0,18.7c0,1.6-0.5,3-1.4,4.2
		C65.7,85.1,63.8,87.5,61.9,90z"/>
	<path class="st2" d="M86.1,83.1c-2.7,2.3-5.3,4.5-8,6.8c-0.2-0.2-0.4-0.5-0.6-0.7c-1.7-2.1-3.4-4.3-5.1-6.4c-1-1.3-1.5-2.7-1.5-4.4
		c0-6.3,0-12.5,0-18.8c0-0.9,0.5-1.6,1.3-1.7c0.9-0.1,1.6,0.5,1.7,1.5c0.1,1.6,0.3,3.2,0.4,4.8c0.1,1.6,0.2,3.1,0.4,4.7
		c0,0.6,0.4,1,1,1c0.5,0,0.9-0.5,0.9-1.1c-0.2-2.2-0.3-4.5-0.5-6.7c-0.1-1-0.1-2.1-0.2-3.1c-0.2-1.7-1.2-2.8-2.9-3.1
		c-0.1,0-0.2,0-0.3,0c-0.3-2.2-0.5-4.4-0.8-6.5c-0.2-1.4-0.3-2.8-0.5-4.2c-0.1-0.7,0.2-1.2,0.8-1.4c0.6-0.1,1.1,0.2,1.3,0.8
		c1.8,5.2,3.6,10.3,5.4,15.5c0.7,2.1,0.7,4.3,0.9,6.4c0.2,2.7,0.4,5.4,0.5,8.1c0.1,0.9,0.4,1.6,0.9,2.3c1.5,1.8,3,3.7,4.5,5.5
		C85.8,82.7,85.9,82.9,86.1,83.1z"/>
	<path class="st2" d="M63.1,93.4c-0.9,0.9-1.8,1.7-2.6,2.5c-0.1,0.1-0.3,0.2-0.5,0.2c-5.3,0-10.6,0-15.9,0c-0.1,0-0.1,0-0.2,0
		c0-0.5,0-1,0-1.5c0-1.7,0-3.4,0-5.1c0-0.2,0-0.5,0.2-0.6c2.1-2.1,4.2-4.2,6.3-6.4C54.6,86.1,58.8,89.7,63.1,93.4z"/>
	<path class="st2" d="M96.1,96.1c-0.5,0-0.9,0-1.2,0c-4.9,0-9.8,0-14.6,0c-0.4,0-0.7-0.1-0.9-0.4c-0.8-0.8-1.5-1.6-2.3-2.4
		c4.2-3.6,8.3-7.2,12.5-10.8c0.2,0.2,0.3,0.3,0.4,0.4c1.9,1.9,3.9,3.8,5.8,5.8c0.2,0.2,0.4,0.6,0.4,0.8
		C96.1,91.7,96.1,93.9,96.1,96.1z"/>
	<path class="st2" d="M70.1,51.1c0.2,1.4,0.3,2.7,0.5,4.1c0,0.1,0,0.3,0,0.4c0.2,0.6,0.1,1.2-0.6,1.4c-0.8-0.4-0.8-0.4-0.7-1.3
		c0.2-1.5,0.4-3,0.6-4.6C70,51.1,70,51.1,70.1,51.1z"/>
</g>
<g>
	<path class="st2" d="M52.5,107.3h7.1v2.1h-4.8v3h4.4v2.1h-4.4v4.8h-2.3V107.3z"/>
	<path class="st2" d="M61.1,111.2c0.5-0.2,1-0.4,1.6-0.5s1.3-0.2,2-0.2c0.6,0,1.1,0.1,1.5,0.2s0.7,0.3,0.9,0.6s0.4,0.6,0.5,0.9
		s0.1,0.8,0.1,1.2c0,0.5,0,1-0.1,1.5s-0.1,1-0.1,1.5s0,1,0,1.4s0.1,0.9,0.3,1.3h-1.8l-0.4-1.2h-0.1c-0.2,0.4-0.5,0.7-0.9,0.9
		c-0.4,0.3-0.9,0.4-1.6,0.4c-0.4,0-0.8-0.1-1.1-0.2c-0.3-0.1-0.6-0.3-0.8-0.5c-0.2-0.2-0.4-0.5-0.5-0.8c-0.1-0.3-0.2-0.6-0.2-1
		c0-0.5,0.1-1,0.4-1.3s0.6-0.7,1-0.9c0.4-0.2,1-0.4,1.6-0.5c0.6-0.1,1.3-0.1,2-0.1c0.1-0.6,0-1.1-0.1-1.4c-0.2-0.3-0.6-0.4-1.1-0.4
		c-0.4,0-0.9,0-1.4,0.1c-0.5,0.1-0.9,0.2-1.2,0.4L61.1,111.2z M63.9,117.6c0.4,0,0.8-0.1,1.1-0.3c0.3-0.2,0.5-0.4,0.6-0.6v-1.1
		c-0.4,0-0.7,0-1,0c-0.3,0-0.6,0.1-0.9,0.2c-0.3,0.1-0.5,0.2-0.6,0.3c-0.1,0.1-0.2,0.3-0.2,0.6c0,0.3,0.1,0.6,0.3,0.7
		S63.6,117.6,63.9,117.6z"/>
	<path class="st2" d="M69.5,108.3c0-0.3,0.1-0.6,0.4-0.8c0.2-0.2,0.6-0.4,1-0.4c0.4,0,0.8,0.1,1.1,0.4c0.3,0.2,0.4,0.5,0.4,0.8
		s-0.1,0.6-0.4,0.8c-0.3,0.2-0.6,0.3-1.1,0.3c-0.4,0-0.8-0.1-1-0.3C69.6,108.9,69.5,108.6,69.5,108.3z M69.8,110.7H72v8.6h-2.2
		V110.7z"/>
	<path class="st2" d="M73.3,110.7h1.2v-1.6l2.2-0.6v2.2h2.1v1.9h-2.1v3.3c0,0.6,0.1,1,0.2,1.3c0.1,0.3,0.3,0.4,0.7,0.4
		c0.2,0,0.4,0,0.6-0.1c0.2,0,0.4-0.1,0.6-0.2l0.4,1.7c-0.3,0.1-0.7,0.3-1.1,0.4c-0.4,0.1-0.8,0.2-1.2,0.2c-0.8,0-1.4-0.2-1.7-0.6
		c-0.4-0.4-0.6-1.1-0.6-2v-4.3h-1.2V110.7z"/>
	<path class="st2" d="M85.4,119.3v-4.9c0-0.7-0.1-1.2-0.3-1.5c-0.2-0.3-0.5-0.5-1.1-0.5c-0.4,0-0.7,0.1-1,0.4s-0.5,0.6-0.6,1v5.5
		h-2.2v-12h2.2v4.4h0.1c0.3-0.4,0.6-0.7,1-0.9c0.4-0.2,0.9-0.3,1.5-0.3c0.4,0,0.8,0.1,1.1,0.2c0.3,0.1,0.6,0.3,0.8,0.6
		c0.2,0.3,0.4,0.6,0.5,1.1c0.1,0.5,0.2,1,0.2,1.7v5.3H85.4z"/>
</g>
</svg>
