<svg width="31" height="20" viewBox="0 0 31 20" fill="none" xmlns="http://www.w3.org/2000/svg">
<path d="M16.5594 5.74391H1.5054C0.677431 5.74391 0 6.3901 0 7.17989C0 7.96967 0.677431 8.61586 1.5054 8.61586H16.5594C17.3874 8.61586 18.0648 7.96967 18.0648 7.17989C18.0648 6.3901 17.3874 5.74391 16.5594 5.74391ZM16.5594 0H1.5054C0.677431 0 0 0.64619 0 1.43598C0 2.22576 0.677431 2.87195 1.5054 2.87195H16.5594C17.3874 2.87195 18.0648 2.22576 18.0648 1.43598C18.0648 0.64619 17.3874 0 16.5594 0ZM1.5054 14.3598H10.5378C11.3658 14.3598 12.0432 13.7136 12.0432 12.9238C12.0432 12.134 11.3658 11.4878 10.5378 11.4878H1.5054C0.677431 11.4878 0 12.134 0 12.9238C0 13.7136 0.677431 14.3598 1.5054 14.3598ZM30.4242 8.91742L30.5597 9.04666C31.1468 9.60669 31.1468 10.5114 30.5597 11.0714L22.1595 19.0985C21.5724 19.6585 20.624 19.6585 20.0369 19.0985L15.3852 14.6613C14.7981 14.1013 14.7981 13.1966 15.3852 12.6366L15.5207 12.5074C16.1078 11.9473 17.0562 11.9473 17.6433 12.5074L21.1057 15.8101L28.3016 8.93178C28.8736 8.35739 29.8371 8.35739 30.4242 8.91742V8.91742Z" fill="#00B837"/>
</svg>
