<svg width="140" height="142" viewBox="0 0 140 142" fill="none" xmlns="http://www.w3.org/2000/svg">
<rect y="2" width="140" height="140" rx="6" fill="#A70E13"/>
<path d="M70.0001 11.6666C37.8001 11.6666 11.6667 37.8 11.6667 70C11.6667 102.2 37.8001 128.333 70.0001 128.333C102.2 128.333 128.333 102.2 128.333 70C128.333 37.8 102.2 11.6666 70.0001 11.6666ZM75.8334 30.9166L83.7084 25.375C94.3251 28.6416 103.367 35.6416 109.258 44.8583L106.983 52.675L99.1084 55.3583L75.8334 39.0833V30.9166ZM56.2918 25.375L64.1668 30.9166V39.0833L40.8918 55.3583L33.0168 52.675L30.7418 44.8583C36.6334 35.7 45.6751 28.7 56.2918 25.375ZM41.3001 99.8083L34.6501 100.392C27.5918 92.225 23.3334 81.6083 23.3334 70C23.3334 69.3 23.3917 68.6583 23.4501 67.9583L29.2834 63.7L37.3334 66.5L45.8501 91.8166L41.3001 99.8083ZM84.5834 114.275C79.9751 115.792 75.0751 116.667 70.0001 116.667C64.9251 116.667 60.0251 115.792 55.4168 114.275L51.3918 105.583L55.1251 99.1666H84.9334L88.6668 105.642L84.5834 114.275ZM83.2418 87.5H56.7584L48.8834 64.05L70.0001 49.2333L91.1751 64.05L83.2418 87.5ZM105.35 100.392L98.7001 99.8083L94.0918 91.8166L102.608 66.5L110.717 63.7583L116.55 68.0166C116.608 68.6583 116.667 69.3 116.667 70C116.667 81.6083 112.408 92.225 105.35 100.392Z" fill="white" fill-opacity="0.08"/>
<path d="M70.5 45.75C57.39 45.75 46.75 56.39 46.75 69.5C46.75 82.61 57.39 93.25 70.5 93.25C83.61 93.25 94.25 82.61 94.25 69.5C94.25 56.39 83.61 45.75 70.5 45.75ZM72.875 53.5875L76.0813 51.3313C80.4038 52.6613 84.085 55.5113 86.4837 59.2638L85.5575 62.4463L82.3512 63.5388L72.875 56.9125V53.5875ZM64.9187 51.3313L68.125 53.5875V56.9125L58.6488 63.5388L55.4425 62.4463L54.5163 59.2638C56.915 55.535 60.5962 52.685 64.9187 51.3313ZM58.815 81.6363L56.1075 81.8738C53.2337 78.5488 51.5 74.2263 51.5 69.5C51.5 69.215 51.5237 68.9538 51.5475 68.6688L53.9225 66.935L57.2 68.075L60.6675 78.3825L58.815 81.6363ZM76.4375 87.5263C74.5613 88.1438 72.5662 88.5 70.5 88.5C68.4338 88.5 66.4387 88.1438 64.5625 87.5263L62.9238 83.9875L64.4438 81.375H76.58L78.1 84.0113L76.4375 87.5263ZM75.8913 76.625H65.1087L61.9025 67.0775L70.5 61.045L79.1213 67.0775L75.8913 76.625ZM84.8925 81.8738L82.185 81.6363L80.3087 78.3825L83.7762 68.075L87.0775 66.9588L89.4525 68.6925C89.4762 68.9538 89.5 69.215 89.5 69.5C89.5 74.2263 87.7663 78.5488 84.8925 81.8738Z" fill="white"/>
<path d="M52.1623 114.804C52.1623 114.441 52.0263 114.147 51.7543 113.92C51.4936 113.693 51.1593 113.489 50.7513 113.308C50.3546 113.115 49.9183 112.923 49.4423 112.73C48.9776 112.526 48.5413 112.282 48.1333 111.999C47.7366 111.704 47.4023 111.342 47.1303 110.911C46.8696 110.48 46.7393 109.931 46.7393 109.262C46.7393 108.684 46.8356 108.185 47.0283 107.766C47.221 107.335 47.493 106.978 47.8443 106.695C48.207 106.412 48.632 106.202 49.1193 106.066C49.6066 105.93 50.1506 105.862 50.7513 105.862C51.4426 105.862 52.0943 105.924 52.7063 106.049C53.3183 106.162 53.8226 106.332 54.2193 106.559L53.4883 108.514C53.239 108.355 52.865 108.214 52.3663 108.089C51.8676 107.953 51.3293 107.885 50.7513 107.885C50.2073 107.885 49.788 107.993 49.4933 108.208C49.21 108.423 49.0683 108.712 49.0683 109.075C49.0683 109.415 49.1986 109.698 49.4593 109.925C49.7313 110.152 50.0656 110.361 50.4623 110.554C50.8703 110.747 51.3066 110.945 51.7713 111.149C52.2473 111.353 52.6836 111.602 53.0803 111.897C53.4883 112.18 53.8226 112.537 54.0833 112.968C54.3553 113.387 54.4913 113.914 54.4913 114.549C54.4913 115.184 54.3836 115.733 54.1683 116.198C53.9643 116.651 53.6696 117.031 53.2843 117.337C52.9103 117.643 52.4513 117.87 51.9073 118.017C51.3746 118.164 50.7853 118.238 50.1393 118.238C49.2893 118.238 48.5413 118.159 47.8953 118C47.2493 117.841 46.7733 117.683 46.4673 117.524L47.2153 115.535C47.34 115.603 47.4986 115.677 47.6913 115.756C47.8953 115.835 48.122 115.909 48.3713 115.977C48.6206 116.045 48.8813 116.102 49.1533 116.147C49.4366 116.192 49.7256 116.215 50.0203 116.215C50.7116 116.215 51.2386 116.102 51.6013 115.875C51.9753 115.637 52.1623 115.28 52.1623 114.804ZM56.2087 109.5H57.8238L58.0788 110.52H58.1467C58.4414 110.089 58.7871 109.772 59.1838 109.568C59.5918 109.364 60.0848 109.262 60.6628 109.262C61.7281 109.262 62.5271 109.602 63.0598 110.282C63.5924 110.951 63.8588 112.033 63.8588 113.529C63.8588 114.254 63.7738 114.912 63.6038 115.501C63.4338 116.079 63.1788 116.572 62.8388 116.98C62.5101 117.388 62.1021 117.7 61.6148 117.915C61.1388 118.13 60.5891 118.238 59.9658 118.238C59.6144 118.238 59.3254 118.21 59.0988 118.153C58.8721 118.108 58.6454 118.028 58.4188 117.915V121.4H56.2087V109.5ZM59.9997 111.132C59.5691 111.132 59.2291 111.24 58.9798 111.455C58.7418 111.67 58.5548 111.993 58.4188 112.424V115.96C58.5774 116.085 58.7474 116.187 58.9288 116.266C59.1214 116.334 59.3708 116.368 59.6768 116.368C60.3114 116.368 60.7874 116.147 61.1048 115.705C61.4221 115.252 61.5808 114.509 61.5808 113.478C61.5808 112.73 61.4561 112.152 61.2068 111.744C60.9574 111.336 60.5551 111.132 59.9997 111.132ZM65.1982 113.75C65.1982 112.311 65.5495 111.206 66.2522 110.435C66.9549 109.653 67.9409 109.262 69.2102 109.262C69.8902 109.262 70.4795 109.37 70.9782 109.585C71.4769 109.8 71.8905 110.106 72.2192 110.503C72.5479 110.888 72.7915 111.359 72.9502 111.914C73.1202 112.469 73.2052 113.081 73.2052 113.75C73.2052 115.189 72.8539 116.3 72.1512 117.082C71.4599 117.853 70.4795 118.238 69.2102 118.238C68.5302 118.238 67.9409 118.13 67.4422 117.915C66.9435 117.7 66.5242 117.399 66.1842 117.014C65.8555 116.617 65.6062 116.141 65.4362 115.586C65.2775 115.031 65.1982 114.419 65.1982 113.75ZM67.4762 113.75C67.4762 114.124 67.5102 114.47 67.5782 114.787C67.6462 115.104 67.7482 115.382 67.8842 115.62C68.0202 115.858 68.1959 116.045 68.4112 116.181C68.6379 116.306 68.9042 116.368 69.2102 116.368C69.7882 116.368 70.2189 116.158 70.5022 115.739C70.7855 115.32 70.9272 114.657 70.9272 113.75C70.9272 112.968 70.7969 112.339 70.5362 111.863C70.2755 111.376 69.8335 111.132 69.2102 111.132C68.6662 111.132 68.2412 111.336 67.9352 111.744C67.6292 112.152 67.4762 112.821 67.4762 113.75ZM79.6459 111.574C79.2945 111.449 78.9772 111.387 78.6939 111.387C78.2972 111.387 77.9629 111.495 77.6909 111.71C77.4302 111.914 77.2545 112.18 77.1639 112.509V118H74.9539V109.5H76.6709L76.9259 110.622H76.9939C77.1865 110.203 77.4472 109.88 77.7759 109.653C78.1045 109.426 78.4899 109.313 78.9319 109.313C79.2265 109.313 79.5609 109.375 79.9349 109.5L79.6459 111.574ZM80.7613 109.5H81.9343V107.902L84.1443 107.273V109.5H86.2183V111.37H84.1443V114.634C84.1443 115.223 84.2009 115.648 84.3143 115.909C84.4389 116.158 84.6656 116.283 84.9943 116.283C85.2209 116.283 85.4136 116.26 85.5723 116.215C85.7423 116.17 85.9293 116.102 86.1333 116.011L86.5243 117.711C86.2183 117.858 85.8613 117.983 85.4533 118.085C85.0453 118.187 84.6316 118.238 84.2123 118.238C83.4303 118.238 82.8523 118.04 82.4783 117.643C82.1156 117.235 81.9343 116.572 81.9343 115.654V111.37H80.7613V109.5ZM91.3078 115.654C91.3078 115.427 91.2115 115.246 91.0188 115.11C90.8262 114.974 90.5882 114.849 90.3048 114.736C90.0215 114.623 89.7098 114.509 89.3698 114.396C89.0298 114.271 88.7182 114.107 88.4348 113.903C88.1515 113.688 87.9135 113.421 87.7208 113.104C87.5282 112.775 87.4318 112.356 87.4318 111.846C87.4318 111.007 87.6812 110.367 88.1798 109.925C88.6785 109.483 89.3982 109.262 90.3388 109.262C90.9848 109.262 91.5685 109.33 92.0898 109.466C92.6112 109.602 93.0192 109.755 93.3138 109.925L92.8208 111.523C92.5602 111.421 92.2315 111.313 91.8348 111.2C91.4382 111.087 91.0358 111.03 90.6278 111.03C89.9705 111.03 89.6418 111.285 89.6418 111.795C89.6418 111.999 89.7382 112.163 89.9308 112.288C90.1235 112.413 90.3615 112.532 90.6448 112.645C90.9282 112.747 91.2398 112.86 91.5798 112.985C91.9198 113.11 92.2315 113.274 92.5148 113.478C92.7982 113.671 93.0362 113.926 93.2288 114.243C93.4215 114.56 93.5178 114.968 93.5178 115.467C93.5178 116.328 93.2402 117.008 92.6848 117.507C92.1408 117.994 91.3192 118.238 90.2198 118.238C89.6192 118.238 89.0525 118.159 88.5198 118C87.9985 117.853 87.5735 117.677 87.2448 117.473L87.8568 115.824C88.1175 115.971 88.4632 116.119 88.8938 116.266C89.3245 116.402 89.7665 116.47 90.2198 116.47C90.5485 116.47 90.8092 116.408 91.0018 116.283C91.2058 116.158 91.3078 115.949 91.3078 115.654Z" fill="white"/>
</svg>
