<svg width="24" height="24" viewBox="0 0 24 24" fill="none" xmlns="http://www.w3.org/2000/svg">
<path fill-rule="evenodd" clip-rule="evenodd" d="M12 24C18.6274 24 24 18.6274 24 12C24 5.37258 18.6274 0 12 0C5.37258 0 0 5.37258 0 12C0 18.6274 5.37258 24 12 24Z" fill="#25D366"/>
<path fill-rule="evenodd" clip-rule="evenodd" d="M12.3957 18.6762H12.3928C11.1985 18.6757 10.0251 18.3761 8.98287 17.8076L5.2002 18.7999L6.2125 15.1023C5.58806 14.0202 5.25948 12.7926 5.26002 11.535C5.26159 7.60075 8.4626 4.3999 12.3957 4.3999C14.3045 4.40073 16.0961 5.14384 17.4433 6.49261C18.7905 7.84131 19.532 9.63407 19.5313 11.5407C19.5297 15.474 16.3299 18.6746 12.3957 18.6762ZM9.15799 16.5159L9.37456 16.6444C10.2852 17.1848 11.329 17.4707 12.3932 17.4711H12.3956C15.6645 17.4711 18.325 14.8105 18.3263 11.5403C18.3269 9.95556 17.7106 8.4655 16.5909 7.34445C15.4712 6.2234 13.982 5.60572 12.3979 5.60518C9.12652 5.60518 6.46595 8.26551 6.46465 11.5355C6.46419 12.6561 6.77774 13.7475 7.37143 14.6918L7.51244 14.9162L6.9133 17.1047L9.15799 16.5159ZM15.9904 13.2375C15.9458 13.1632 15.827 13.1185 15.6487 13.0293C15.4704 12.94 14.5938 12.5088 14.4303 12.4492C14.2669 12.3897 14.148 12.36 14.0292 12.5384C13.9104 12.7169 13.5687 13.1185 13.4647 13.2375C13.3606 13.3565 13.2566 13.3714 13.0784 13.2822C12.9001 13.1929 12.3256 13.0047 11.6446 12.3972C11.1146 11.9244 10.7567 11.3406 10.6527 11.1621C10.5487 10.9836 10.6416 10.8871 10.7309 10.7982C10.8111 10.7183 10.9092 10.5899 10.9983 10.4859C11.0875 10.3818 11.1172 10.3074 11.1766 10.1884C11.2361 10.0694 11.2064 9.96532 11.1618 9.87607C11.1172 9.78682 10.7606 8.90922 10.6121 8.55222C10.4673 8.20456 10.3203 8.25165 10.2109 8.24616C10.107 8.24094 9.98804 8.23984 9.86919 8.23984C9.75034 8.23984 9.55717 8.28447 9.39374 8.46297C9.23032 8.64147 8.76973 9.07282 8.76973 9.95035C8.76973 10.828 9.40859 11.6758 9.49775 11.7947C9.58689 11.9138 10.755 13.7146 12.5435 14.4869C12.9689 14.6706 13.301 14.7803 13.5599 14.8625C13.987 14.9982 14.3758 14.9791 14.6829 14.9331C15.0255 14.882 15.7378 14.5019 15.8864 14.0854C16.0349 13.6688 16.0349 13.3119 15.9904 13.2375Z" fill="#FDFDFD"/>
</svg>
