<svg id="Layer_1" data-name="Layer 1" xmlns="http://www.w3.org/2000/svg" viewBox="0 0 115.2 123.39"><defs><style>.cls-1{fill:#3ab54a;stroke:#fff;stroke-miterlimit:2.61;stroke-width:0.5px;fill-rule:evenodd;}</style></defs><path class="cls-1" d="M93.13,79.5a21.82,21.82,0,1,1-21.82,21.82A21.82,21.82,0,0,1,93.13,79.5ZM8.08.25h95.28a7.85,7.85,0,0,1,7.83,7.83v70a28.8,28.8,0,0,0-8.25-4.48V10a1.34,1.34,0,0,0-.46-1.05,1.56,1.56,0,0,0-1-.46H9.94a1.34,1.34,0,0,0-1,.46A1.54,1.54,0,0,0,8.43,10V80h0l32-30.61a3.14,3.14,0,0,1,4.44.23s0,.07.07.07l26.88,31.8a29.19,29.19,0,0,0-6.07,29.05H8.08a7.85,7.85,0,0,1-7.83-7.83V8.08A7.85,7.85,0,0,1,8.08.25ZM74,79.35l3.71-22.79A3.16,3.16,0,0,1,81.31,54a3.25,3.25,0,0,1,1.71.86l17.1,18A29.25,29.25,0,0,0,74,79.35Zm8-61.16a11.34,11.34,0,1,1-8,3.32,11.36,11.36,0,0,1,8-3.32Zm3.84,69.86,20,21.6a15.15,15.15,0,0,0-20-21.6Zm14.62,26.53L80.48,93a15.15,15.15,0,0,0,20,21.6Z" transform="translate(0)"/></svg>