<?xml version="1.0" encoding="utf-8"?>
<!-- Generator: Adobe Illustrator 25.0.1, SVG Export Plug-In . SVG Version: 6.00 Build 0)  -->
<svg version="1.1" id="Layer_1" xmlns="http://www.w3.org/2000/svg" xmlns:xlink="http://www.w3.org/1999/xlink" x="0px" y="0px"
	 viewBox="0 0 68.4 24" style="enable-background:new 0 0 68.4 24;" xml:space="preserve">
<style type="text/css">
	.st0{opacity:0.8;fill:url(#SVGID_1_);}
	.st1{opacity:0.8;fill:url(#SVGID_2_);}
	.st2{opacity:0.8;fill:url(#SVGID_3_);}
	.st3{opacity:0.8;fill:url(#SVGID_4_);}
	.st4{fill:#FFFFFF;}
</style>
<g>
	<linearGradient id="SVGID_1_" gradientUnits="userSpaceOnUse" x1="56.3681" y1="0" x2="56.3681" y2="24">
		<stop  offset="0" style="stop-color:#A0CA3A"/>
		<stop  offset="1" style="stop-color:#377438"/>
	</linearGradient>
	<path class="st0" d="M56.4,0c-6.6,0-12,5.4-12,12c0,6.6,5.4,12,12,12c6.6,0,12-5.4,12-12C68.4,5.4,63,0,56.4,0z"/>
	<linearGradient id="SVGID_2_" gradientUnits="userSpaceOnUse" x1="41.581" y1="0" x2="41.581" y2="24">
		<stop  offset="0" style="stop-color:#F3E104"/>
		<stop  offset="1" style="stop-color:#F05C28"/>
	</linearGradient>
	<path class="st1" d="M41.6,0c-6.6,0-12,5.4-12,12c0,6.6,5.4,12,12,12c6.6,0,12-5.4,12-12C53.6,5.4,48.2,0,41.6,0z"/>
	<linearGradient id="SVGID_3_" gradientUnits="userSpaceOnUse" x1="26.7937" y1="0" x2="26.7937" y2="24">
		<stop  offset="0" style="stop-color:#F26E28"/>
		<stop  offset="1" style="stop-color:#C3161C"/>
	</linearGradient>
	<path class="st2" d="M26.8,0c-6.6,0-12,5.4-12,12c0,6.6,5.4,12,12,12s12-5.4,12-12C38.8,5.4,33.4,0,26.8,0z"/>
	<linearGradient id="SVGID_4_" gradientUnits="userSpaceOnUse" x1="12.0068" y1="24" x2="12.0068" y2="-9.094947e-13">
		<stop  offset="0" style="stop-color:#8F267D"/>
		<stop  offset="1" style="stop-color:#EC257A"/>
	</linearGradient>
	<path class="st3" d="M12,24c6.6,0,12-5.4,12-12c0-6.6-5.4-12-12-12C5.4,0,0,5.4,0,12C0,18.6,5.4,24,12,24z"/>
	<path class="st4" d="M27.4,18.1c-1,0-2-0.3-2.9-0.8c-0.9-0.5-1.6-1.2-2.1-2.1c-0.5-0.9-0.8-1.8-0.8-2.9c0-1,0.3-2,0.8-2.9
		c0.5-0.9,1.2-1.6,2.1-2.1c0.9-0.5,1.8-0.8,2.9-0.8c1,0,2,0.3,2.9,0.8c0.9,0.5,1.6,1.2,2.1,2c0.5,0.9,0.8,1.8,0.8,2.8l0,5.9h-2.4v-1
		C29.7,17.7,28.6,18.1,27.4,18.1z M29.1,9.4c-0.5-0.3-1.1-0.4-1.7-0.4c-0.6,0-1.2,0.2-1.7,0.5c-0.5,0.3-0.9,0.7-1.2,1.2
		c-0.3,0.5-0.5,1.1-0.5,1.7c0,0.6,0.2,1.2,0.5,1.7c0.3,0.5,0.7,0.9,1.2,1.2c0.5,0.3,1.1,0.5,1.7,0.5c0.6,0,1.2-0.2,1.7-0.5
		c0.5-0.3,0.9-0.7,1.2-1.2c0.3-0.5,0.4-1.1,0.4-1.7c0-0.6-0.2-1.2-0.5-1.7S29.6,9.7,29.1,9.4z"/>
	<path class="st4" d="M43.5,9.2H38V6.7h8.8v1.7l-6,8v-0.6H47v2.5h-9.4v-2l5.9-7.7V9.2z"/>
	<path class="st4" d="M56.7,6.5c0.8,0,1.7,0.2,2.5,0.6c0.9,0.4,1.6,1,2.2,1.9c0.7,1,1,2.1,1,3.3c0,0.3,0,0.6-0.1,0.9l0,0v0l-8.8,0.2
		c0.2,0.5,0.4,0.9,0.8,1.2c0.3,0.3,0.7,0.6,1.2,0.8c0.4,0.1,0.8,0.2,1.2,0.2c0.5,0,0.9-0.1,1.4-0.3c0.4-0.2,0.8-0.5,1.1-0.8l2.3,0.9
		c-0.5,0.8-1.2,1.5-2.1,1.9s-1.8,0.7-2.8,0.7c-0.8,0-1.7-0.2-2.5-0.6c-0.9-0.4-1.6-1-2.2-2c-0.7-1-1-2.1-1-3.3c0-0.7,0.1-1.4,0.4-2
		c0.4-1.1,1.1-2,2.1-2.7C54.4,6.9,55.5,6.5,56.7,6.5z M59.8,11.1c-0.2-0.4-0.4-0.8-0.7-1.2c-0.3-0.3-0.7-0.6-1.2-0.8
		C57.5,9.1,57.1,9,56.7,9c-0.7,0-1.3,0.2-1.9,0.6c-0.6,0.4-1,0.9-1.3,1.6l0,0.1L59.8,11.1z"/>
	<path class="st4" d="M17,11.7c-0.5-0.8-1.1-1.4-1.9-1.9C15.7,9.1,16,8.3,16,7.4c0-2.1-1.8-3.8-4-3.8H8H7.4H6.2v1.2V5v6.5h0l0,3.3
		c0,1,0.3,2,0.8,2.8c0.5,0.9,1.2,1.6,2.1,2.1c0.9,0.5,1.8,0.8,2.9,0.8c1.1,0,2-0.3,2.9-0.8c0.9-0.5,1.6-1.2,2.1-2.1s0.8-1.9,0.8-2.9
		S17.5,12.6,17,11.7z M8.6,5.9H12c0.9,0,1.5,0.7,1.5,1.6c0,0.6-0.3,1.1-0.7,1.3C12.8,9,12.6,9,12.5,9.1c-0.2,0.1-0.3,0.1-0.5,0.1
		H8.6V5.9z M14.8,16.2c-0.3,0.5-0.7,0.9-1.2,1.2c-0.5,0.3-1,0.4-1.6,0.4c-0.6,0-1.1-0.1-1.6-0.4c-0.5-0.3-0.9-0.7-1.2-1.2
		c-0.3-0.5-0.4-1-0.4-1.6c0-0.3,0.1-1.9,0.1-3.1h3.6c0.1,0,0.3,0,0.3,0c0.3,0.1,0.5,0.2,0.8,0.3c0.5,0.3,0.9,0.7,1.2,1.2
		c0.3,0.5,0.4,1,0.4,1.6C15.2,15.2,15.1,15.7,14.8,16.2z"/>
</g>
</svg>
