<svg width="50" height="36" viewBox="0 0 50 36" fill="none" xmlns="http://www.w3.org/2000/svg">
<path fill-rule="evenodd" clip-rule="evenodd" d="M20.3546 1C18.6991 1 16.7125 1.80843 15.5426 2.95402L1.62183 16.5847C0.828531 17.3615 0.828531 18.6385 1.62183 19.4153L15.5426 33.046C16.7052 34.1843 18.7068 35 20.3546 35H42.9336C46.2834 35 48.9999 32.3336 48.9999 29.0498V6.95018C48.9999 3.65861 46.2879 1 42.9336 1H20.3546ZM17.3841 31.2429L3.85942 18L17.3841 4.75714C18.0649 4.09046 19.3889 3.55 20.3546 3.55H42.9337C44.8457 3.55 46.3957 5.0631 46.3957 6.95018V29.0498C46.3957 30.9277 44.8427 32.45 42.9337 32.45H20.3546C19.3949 32.45 18.0564 31.9012 17.3841 31.2429ZM23.4031 12.5853C22.8874 12.08 22.8874 11.2496 23.4031 10.7442C23.9043 10.2531 24.7062 10.2531 25.2073 10.7442L30.7446 16.1704L36.2818 10.7442C36.7829 10.2531 37.5849 10.2531 38.086 10.7442C38.6017 11.2496 38.6017 12.08 38.086 12.5853L32.5861 17.975L38.086 23.3646C38.6017 23.87 38.6017 24.7004 38.086 25.2057C37.5849 25.6968 36.7829 25.6968 36.2818 25.2057L30.7446 19.7795L25.2073 25.2057C24.7062 25.6968 23.9043 25.6968 23.4031 25.2057C22.8874 24.7004 22.8874 23.87 23.4031 23.3646L28.9031 17.975L23.4031 12.5853Z" fill="#5C6670"/>
<path d="M15.5426 2.95402L15.1521 2.55526L15.5426 2.95402ZM1.62183 16.5847L1.23138 16.186H1.23138L1.62183 16.5847ZM1.62183 19.4153L1.23138 19.814H1.23138L1.62183 19.4153ZM15.5426 33.046L15.1521 33.4447L15.5426 33.046ZM3.85942 18L3.46897 17.6012L3.06172 18L3.46897 18.3988L3.85942 18ZM17.3841 31.2429L16.9936 31.6416H16.9936L17.3841 31.2429ZM17.3841 4.75714L16.9936 4.35838L16.9936 4.35839L17.3841 4.75714ZM23.4031 10.7442L23.7937 11.1428V11.1428L23.4031 10.7442ZM23.4031 12.5853L23.7937 12.1867L23.4031 12.5853ZM25.2073 10.7442L24.8167 11.1428L25.2073 10.7442ZM30.7446 16.1704L30.354 16.569L30.7446 16.9518L31.1352 16.569L30.7446 16.1704ZM36.2818 10.7442L35.8912 10.3456V10.3456L36.2818 10.7442ZM38.086 10.7442L38.4766 10.3456V10.3456L38.086 10.7442ZM38.086 12.5853L37.6954 12.1867V12.1867L38.086 12.5853ZM32.5861 17.975L32.1954 17.5764L31.7887 17.975L32.1954 18.3736L32.5861 17.975ZM38.086 23.3646L38.4766 22.966L38.086 23.3646ZM38.086 25.2057L37.6954 24.8071V24.8071L38.086 25.2057ZM36.2818 25.2057L36.6724 24.8071L36.2818 25.2057ZM30.7446 19.7795L31.1352 19.3809L30.7446 18.9982L30.354 19.3809L30.7446 19.7795ZM25.2073 25.2057L25.5979 25.6043L25.2073 25.2057ZM23.4031 25.2057L23.7937 24.8071H23.7937L23.4031 25.2057ZM23.4031 23.3646L23.7937 23.7632L23.4031 23.3646ZM28.9031 17.975L29.2937 18.3736L29.7004 17.975L29.2937 17.5764L28.9031 17.975ZM15.933 3.35278C16.9978 2.31016 18.8439 1.55809 20.3546 1.55809V0.441913C18.5543 0.441913 16.4272 1.30671 15.1521 2.55526L15.933 3.35278ZM2.01228 16.9835L15.933 3.35278L15.1521 2.55526L1.23138 16.186L2.01228 16.9835ZM2.01228 19.0165C1.4425 18.4586 1.4425 17.5414 2.01228 16.9835L1.23138 16.186C0.214565 17.1816 0.214566 18.8184 1.23138 19.814L2.01228 19.0165ZM15.933 32.6472L2.01228 19.0165L1.23138 19.814L15.1521 33.4447L15.933 32.6472ZM20.3546 34.4419C18.8517 34.4419 16.9905 33.6827 15.933 32.6472L15.1521 33.4447C16.4198 34.686 18.5619 35.5581 20.3546 35.5581V34.4419ZM42.9336 34.4419H20.3546V35.5581H42.9336V34.4419ZM48.4419 29.0498C48.4419 32.0154 45.9853 34.4419 42.9336 34.4419V35.5581C46.5815 35.5581 49.558 32.6518 49.558 29.0498H48.4419ZM48.4419 6.95018V29.0498H49.558V6.95018H48.4419ZM42.9336 1.55809C45.99 1.55809 48.4419 3.97705 48.4419 6.95018H49.558C49.558 3.34018 46.5858 0.441913 42.9336 0.441913V1.55809ZM20.3546 1.55809H42.9336V0.441913H20.3546V1.55809ZM3.46897 18.3988L16.9936 31.6416L17.7745 30.8441L4.24987 17.6012L3.46897 18.3988ZM16.9936 4.35839L3.46897 17.6012L4.24987 18.3988L17.7745 5.1559L16.9936 4.35839ZM20.3546 2.99191C19.7794 2.99191 19.134 3.14984 18.5521 3.38664C17.9705 3.62334 17.4006 3.95984 16.9936 4.35838L17.7745 5.1559C18.0484 4.88776 18.4809 4.62069 18.9729 4.42049C19.4646 4.22038 19.9641 4.10809 20.3546 4.10809V2.99191ZM42.9337 2.99191H20.3546V4.10809H42.9337V2.99191ZM46.9538 6.95018C46.9538 4.74446 45.1434 2.99191 42.9337 2.99191V4.10809C44.548 4.10809 45.8376 5.38174 45.8376 6.95018H46.9538ZM46.9538 29.0498V6.95018H45.8376V29.0498H46.9538ZM42.9337 33.0081C45.141 33.0081 46.9538 31.2457 46.9538 29.0498H45.8376C45.8376 30.6097 44.5443 31.8919 42.9337 31.8919V33.0081ZM20.3546 33.0081H42.9337V31.8919H20.3546V33.0081ZM16.9936 31.6416C17.397 32.0366 17.9689 32.3729 18.551 32.6101C19.1333 32.8474 19.7812 33.0081 20.3546 33.0081V31.8919C19.9683 31.8919 19.4671 31.7781 18.9722 31.5765C18.477 31.3747 18.0434 31.1074 17.7745 30.8441L16.9936 31.6416ZM23.0125 10.3456C22.2735 11.0698 22.2735 12.2597 23.0125 12.9839L23.7937 12.1867C23.5013 11.9002 23.5013 11.4294 23.7937 11.1428L23.0125 10.3456ZM25.5979 10.3456C24.8798 9.64187 23.7307 9.64187 23.0125 10.3456L23.7937 11.1428C24.0779 10.8644 24.5326 10.8644 24.8167 11.1428L25.5979 10.3456ZM31.1352 15.7718L25.5979 10.3456L24.8167 11.1428L30.354 16.569L31.1352 15.7718ZM31.1352 16.569L36.6724 11.1428L35.8912 10.3456L30.354 15.7718L31.1352 16.569ZM36.6724 11.1428C36.9566 10.8644 37.4112 10.8644 37.6954 11.1428L38.4766 10.3456C37.7585 9.64187 36.6093 9.64187 35.8912 10.3456L36.6724 11.1428ZM37.6954 11.1428C37.9878 11.4294 37.9878 11.9002 37.6954 12.1867L38.4766 12.9839C39.2156 12.2597 39.2156 11.0698 38.4766 10.3456L37.6954 11.1428ZM37.6954 12.1867L32.1954 17.5764L32.9767 18.3736L38.4766 12.9839L37.6954 12.1867ZM38.4766 22.966L32.9767 17.5764L32.1954 18.3736L37.6954 23.7632L38.4766 22.966ZM38.4766 25.6043C39.2156 24.8802 39.2156 23.6902 38.4766 22.966L37.6954 23.7632C37.9878 24.0498 37.9878 24.5206 37.6954 24.8071L38.4766 25.6043ZM35.8912 25.6043C36.6093 26.3081 37.7585 26.3081 38.4766 25.6043L37.6954 24.8071C37.4112 25.0856 36.9566 25.0856 36.6724 24.8071L35.8912 25.6043ZM30.354 20.1781L35.8912 25.6043L36.6724 24.8071L31.1352 19.3809L30.354 20.1781ZM30.354 19.3809L24.8167 24.8071L25.5979 25.6043L31.1352 20.1781L30.354 19.3809ZM24.8167 24.8071C24.5326 25.0856 24.0779 25.0856 23.7937 24.8071L23.0125 25.6043C23.7307 26.3081 24.8798 26.3081 25.5979 25.6043L24.8167 24.8071ZM23.7937 24.8071C23.5013 24.5206 23.5013 24.0498 23.7937 23.7632L23.0125 22.966C22.2735 23.6902 22.2735 24.8802 23.0125 25.6043L23.7937 24.8071ZM23.7937 23.7632L29.2937 18.3736L28.5125 17.5764L23.0125 22.966L23.7937 23.7632ZM23.0125 12.9839L28.5125 18.3736L29.2937 17.5764L23.7937 12.1867L23.0125 12.9839Z" fill="#5C6670"/>
</svg>
