<?xml version="1.0" encoding="utf-8"?>
<!-- Generator: Adobe Illustrator 25.0.1, SVG Export Plug-In . SVG Version: 6.00 Build 0)  -->
<svg version="1.1" id="Layer_1" xmlns="http://www.w3.org/2000/svg" xmlns:xlink="http://www.w3.org/1999/xlink" x="0px" y="0px"
	 viewBox="0 0 244.8 85.9" style="enable-background:new 0 0 244.8 85.9;" xml:space="preserve">
<style type="text/css">
	.st0{opacity:0.8;fill:url(#SVGID_1_);}
	.st1{opacity:0.8;fill:url(#SVGID_2_);}
	.st2{opacity:0.8;fill:url(#SVGID_3_);}
	.st3{opacity:0.8;fill:url(#SVGID_4_);}
	.st4{fill:#FFFFFF;}
</style>
<g>
	<linearGradient id="SVGID_1_" gradientUnits="userSpaceOnUse" x1="201.823" y1="0" x2="201.823" y2="85.9412">
		<stop  offset="0" style="stop-color:#A0C93A"/>
		<stop  offset="1" style="stop-color:#387539"/>
	</linearGradient>
	<path class="st0" d="M201.8,0c-23.7,0-43,19.2-43,43c0,23.7,19.2,43,43,43c23.7,0,43-19.2,43-43C244.8,19.2,225.6,0,201.8,0z"/>
	<linearGradient id="SVGID_2_" gradientUnits="userSpaceOnUse" x1="148.8722" y1="0" x2="148.8722" y2="85.9412">
		<stop  offset="0" style="stop-color:#F2E008"/>
		<stop  offset="1" style="stop-color:#F15D2A"/>
	</linearGradient>
	<path class="st1" d="M148.9,0c-23.7,0-43,19.2-43,43c0,23.7,19.2,43,43,43c23.7,0,43-19.2,43-43C191.8,19.2,172.6,0,148.9,0z"/>
	<linearGradient id="SVGID_3_" gradientUnits="userSpaceOnUse" x1="95.9205" y1="0" x2="95.9205" y2="85.9412">
		<stop  offset="0" style="stop-color:#F36F28"/>
		<stop  offset="1" style="stop-color:#C32126"/>
	</linearGradient>
	<path class="st2" d="M95.9,0C72.2,0,53,19.2,53,43c0,23.7,19.2,43,43,43s43-19.2,43-43C138.9,19.2,119.7,0,95.9,0z"/>
	<linearGradient id="SVGID_4_" gradientUnits="userSpaceOnUse" x1="42.9706" y1="85.9412" x2="42.9706" y2="0">
		<stop  offset="0" style="stop-color:#8F267C"/>
		<stop  offset="1" style="stop-color:#EB297B"/>
	</linearGradient>
	<path class="st3" d="M43,85.9c23.7,0,43-19.2,43-43c0-23.7-19.2-43-43-43C19.2,0,0,19.2,0,43C0,66.7,19.2,85.9,43,85.9z"/>
	<path class="st4" d="M98.1,64.8c-3.7,0-7.2-0.9-10.4-2.8c-3.2-1.9-5.7-4.4-7.5-7.6c-1.9-3.1-2.8-6.5-2.8-10.3
		c0-3.7,0.9-7.2,2.8-10.4c1.9-3.2,4.4-5.7,7.6-7.6c3.2-1.8,6.6-2.8,10.3-2.8c3.7,0,7.1,0.9,10.3,2.7c3.2,1.8,5.7,4.2,7.6,7.3
		c1.9,3.1,2.8,6.5,2.8,10.1l-0.1,21.1h-8.6v-3.7C106.5,63.5,102.4,64.8,98.1,64.8z M104.1,33.6c-1.8-1.1-3.8-1.6-6-1.6
		c-2.1,0-4.1,0.5-6,1.6c-1.9,1.1-3.3,2.6-4.4,4.4c-1.1,1.8-1.7,3.8-1.7,6c0,2.1,0.5,4.1,1.6,6s2.6,3.3,4.4,4.4
		c1.8,1.1,3.8,1.7,6,1.7c2.1,0,4.1-0.5,6-1.6c1.9-1.1,3.4-2.6,4.5-4.4c1.1-1.8,1.6-3.8,1.6-6c0-2.1-0.5-4.1-1.6-6
		C107.4,36.2,105.9,34.7,104.1,33.6z"/>
	<path class="st4" d="M155.7,32.8h-19.8v-8.9h31.6v6L146,58.4v-2.2h22.4v9.1h-33.6v-7.1l21-27.6V32.8z"/>
	<path class="st4" d="M203,23.5c2.9,0,5.9,0.7,9,2.1c3.1,1.4,5.8,3.7,7.9,6.9c2.4,3.6,3.6,7.5,3.6,11.7c0,1.1-0.1,2.2-0.2,3.3
		l-0.2-0.1v0.1l-31.6,0.8c0.6,1.7,1.5,3.1,2.8,4.4c1.2,1.2,2.6,2.2,4.3,2.8c1.3,0.5,2.8,0.8,4.3,0.8c1.7,0,3.4-0.3,5-1
		c1.6-0.7,3-1.7,4.1-2.9l8.3,3.2c-1.9,2.9-4.4,5.2-7.5,6.9c-3.1,1.7-6.4,2.5-9.9,2.5c-3,0-6-0.7-9.1-2.1c-3.1-1.4-5.7-3.7-7.9-7
		c-2.4-3.6-3.7-7.5-3.7-11.7c0-2.4,0.5-4.9,1.4-7.3c1.5-4,4.1-7.2,7.6-9.6C194.8,24.7,198.7,23.5,203,23.5z M214.2,39.8
		c-0.6-1.6-1.4-3-2.6-4.2c-1.2-1.2-2.6-2.1-4.2-2.7c-1.3-0.5-2.8-0.8-4.3-0.8c-2.5,0-4.8,0.7-6.9,2.1c-2.1,1.4-3.6,3.3-4.5,5.7
		l-0.2,0.5L214.2,39.8z"/>
	<path class="st4" d="M60.9,41.9c-1.7-2.8-3.9-5.1-6.7-6.9c1.8-2.3,2.9-5.2,2.9-8.4c0-7.6-6.3-13.7-14.2-13.7H28.5h-1.9h-4.3v4.3V18
		v23.2h0l0,11.8c0,3.7,0.9,7,2.8,10c1.9,3.1,4.4,5.6,7.6,7.4S39.3,73,43,73c3.8,0,7.2-0.9,10.4-2.8c3.2-1.8,5.7-4.3,7.5-7.5
		c1.9-3.2,2.8-6.6,2.8-10.4S62.8,45.1,60.9,41.9z M30.9,21.2H43c3.1,0,5.5,2.6,5.5,5.7c0,2-1,3.8-2.5,4.8c-0.4,0.3-0.8,0.5-1.3,0.6
		c-0.5,0.2-1.1,0.3-1.7,0.3H30.9V21.2z M53,58c-1.1,1.8-2.5,3.2-4.2,4.2c-1.8,1-3.7,1.5-5.8,1.5c-2,0-3.9-0.5-5.7-1.5
		c-1.8-1-3.2-2.4-4.2-4.2c-1-1.8-1.5-3.7-1.5-5.8c0-1.2,0.2-6.8,0.2-11.2h13.1c0.3,0,1.2,0.1,1.2,0.1c1,0.3,1.9,0.6,2.8,1.1
		c1.8,1.1,3.2,2.5,4.2,4.2c1,1.8,1.5,3.7,1.5,5.8C54.5,54.3,54,56.2,53,58z"/>
</g>
</svg>
