<svg xmlns="http://www.w3.org/2000/svg" xmlns:xlink="http://www.w3.org/1999/xlink" viewBox="0 0 459.2 161.21"><defs><style>.cls-1,.cls-2,.cls-3,.cls-4{opacity:0.8;}.cls-1{fill:url(#linear-gradient);}.cls-2{fill:url(#linear-gradient-2);}.cls-3{fill:url(#linear-gradient-3);}.cls-4{fill:url(#linear-gradient-4);}.cls-5{fill:#fff;}</style><linearGradient id="linear-gradient" x1="378.59" x2="378.59" y2="161.21" gradientUnits="userSpaceOnUse"><stop offset="0" stop-color="#a1ca3a"/><stop offset="1" stop-color="#387438"/></linearGradient><linearGradient id="linear-gradient-2" x1="279.26" x2="279.26" y2="161.21" gradientUnits="userSpaceOnUse"><stop offset="0" stop-color="#f3e105"/><stop offset="1" stop-color="#f15d29"/></linearGradient><linearGradient id="linear-gradient-3" x1="179.93" x2="179.93" y2="161.21" gradientUnits="userSpaceOnUse"><stop offset="0" stop-color="#f36e29"/><stop offset="1" stop-color="#c4161c"/></linearGradient><linearGradient id="linear-gradient-4" x1="80.61" y1="161.21" x2="80.61" gradientUnits="userSpaceOnUse"><stop offset="0" stop-color="#90267d"/><stop offset="1" stop-color="#ed257a"/></linearGradient></defs><g id="Layer_2" data-name="Layer 2"><g id="Layer_1-2" data-name="Layer 1"><path class="cls-1" d="M378.59,0A80.61,80.61,0,1,0,459.2,80.6,80.61,80.61,0,0,0,378.59,0Z"/><path class="cls-2" d="M279.27,0a80.61,80.61,0,1,0,80.6,80.6A80.61,80.61,0,0,0,279.27,0Z"/><path class="cls-3" d="M179.94,0a80.61,80.61,0,1,0,80.6,80.6A80.61,80.61,0,0,0,179.94,0Z"/><path class="cls-4" d="M80.61,161.21A80.61,80.61,0,1,0,0,80.6,80.59,80.59,0,0,0,80.61,161.21Z"/><path class="cls-5" d="M39.5,26.82H71.3c12.9,0,23,.15,30.92,3.66C111.9,34.74,117,42.65,117,53.05c0,12-5.72,18.47-19.06,22.13,15,1.18,23.75,11,23.75,26.53,0,11.14-4.84,19.93-13.63,24.62-9.38,5-21.84,5.28-39,5.28H39.5ZM71.74,68.74c12,0,18.47-1.76,18.47-10.41,0-9.38-6.45-10.7-18-10.7H66V68.74ZM76,110.21c12.16,0,18.61-2.34,18.61-11,0-10-5.86-11.87-18.17-11.87H66v22.86Z"/><path class="cls-5" d="M222.53,116.37H199.08V104.79c-6.74,10.11-14.51,14.51-25.94,14.51-18.9,0-31.8-15-31.8-38.84,0-23.45,12.9-38.54,33.41-38.54,10.85,0,18.47,4.39,24.19,14.21V44.26h23.59ZM183.25,62c-10.4,0-16.7,7.19-16.7,18.32,0,11.29,6.3,18.18,16.7,18.18s16.86-6.89,16.86-18.18C200.11,69.18,193.66,62,183.25,62Z"/><path class="cls-5" d="M241,116.73l37.08-53.64H245.56V44.48h72l-38.4,52.61h35.17v19.64Z"/><path class="cls-5" d="M363.13,85.44c.15,11.29,6,17.44,16.27,17.44,7.77,0,13-2.93,15.83-8.64l19.2,7.76c-4.55,10.85-16.42,17.3-33.57,17.3-26.38,0-41.76-16.27-41.76-38.11s16.26-39.27,40.3-39.27c23.45,0,38.69,15.82,38.69,42.35v1.17Zm15.39-28c-8.21,0-13.34,4.54-14.8,13.63H393C392.15,62.73,386.14,57.45,378.52,57.45Z"/></g></g></svg>