<?xml version="1.0" encoding="utf-8"?>
<!-- Generator: Adobe Illustrator 25.0.0, SVG Export Plug-In . SVG Version: 6.00 Build 0)  -->
<svg version="1.1" id="Layer_1" xmlns="http://www.w3.org/2000/svg" xmlns:xlink="http://www.w3.org/1999/xlink" x="0px" y="0px"
	 viewBox="0 0 28 28" style="enable-background:new 0 0 28 28;" xml:space="preserve">
<style type="text/css">
	.st0{fill:#666666;fill-opacity:0.6;}
	.st1{fill-rule:evenodd;clip-rule:evenodd;fill:#FFFFFF;}
</style>
<g>
	<path class="st0" d="M14,0L14,0c7.7,0,14,6.3,14,14l0,0c0,7.7-6.3,14-14,14l0,0C6.3,28,0,21.7,0,14l0,0C0,6.3,6.3,0,14,0z"/>
	<path class="st1" d="M8,16c1.1,0,2-0.9,2-2s-0.9-2-2-2s-2,0.9-2,2S6.9,16,8,16z M14,16c1.1,0,2-0.9,2-2s-0.9-2-2-2s-2,0.9-2,2
		S12.9,16,14,16z M22,14c0,1.1-0.9,2-2,2s-2-0.9-2-2s0.9-2,2-2S22,12.9,22,14z"/>
</g>
</svg>
